<?xml version="1.0" encoding="utf-8"?>
<!-- Generator: Adobe Illustrator 23.0.4, SVG Export Plug-In . SVG Version: 6.00 Build 0)  -->
<svg version="1.1" id="Layer_1" xmlns="http://www.w3.org/2000/svg" xmlns:xlink="http://www.w3.org/1999/xlink" x="0px" y="0px"
	 viewBox="0 0 1050 200" style="enable-background:new 0 0 1050 200;" xml:space="preserve">
<style type="text/css">
	.st0{fill:#FF2B06;}
	.st1{fill:#FFFFFF;}
	.st2{font-family:'Helvetica';}
	.st3{font-size:146.9px;}
	.st4{letter-spacing:-16;}
</style>
<title>u_black</title>
<g>
	<path class="st0" d="M20.2,174l-7.6-10.9h7.2l4,6l4-6h7l-7.6,10.8l8.5,12.2h-7.2l-4.8-7.2l-4.8,7.2h-7.1L20.2,174z"/>
	<path class="st1" d="M65.8,172.5H43.3v-4.8h22.5L65.8,172.5z M65.8,182.1H43.3v-4.8h22.5L65.8,182.1z"/>
	<path class="st1" d="M83,159.6h-6.3v-5.2H83V159.6z M76.7,163.1H83v23h-6.3V163.1z"/>
	<path class="st1" d="M87.1,163.1h6v3.2h0.2c1.5-2.4,4.2-3.8,7-3.8c6.7,0,8.4,3.8,8.4,9.5v14.1h-6.3v-13c0-3.8-1.1-5.6-4.1-5.6
		c-3.4,0-4.9,1.9-4.9,6.6v12.1h-6.3L87.1,163.1z"/>
	<path class="st1" d="M129,183.2L129,183.2c-1.6,2.5-4.1,3.6-7.1,3.6c-6.9,0-10.3-6-10.3-12.3c0-6.2,3.4-11.9,10.2-11.9
		c2.7-0.1,5.3,1.2,6.9,3.4h0.1v-11.6h6.3v31.8h-6L129,183.2z M123.5,167.3c-4.1,0-5.6,3.6-5.6,7.3c0,3.6,1.6,7.4,5.6,7.4
		c4.2,0,5.4-3.6,5.4-7.4S127.6,167.3,123.5,167.3z"/>
	<path class="st1" d="M144.1,176.1c0.2,4,2.1,5.8,5.6,5.8c2.5,0,4.6-1.6,5-3h5.5c-1.8,5.4-5.6,7.7-10.8,7.7c-7.3,0-11.8-5-11.8-12.1
		c0-6.9,4.8-12.1,11.8-12.1c7.8,0,11.6,6.6,11.2,13.7L144.1,176.1z M154.4,172.1c-0.6-3.2-2-4.9-5-4.9c-2.8-0.1-5.1,2-5.2,4.7
		c0,0.1,0,0.1,0,0.2H154.4z"/>
	<path class="st1" d="M163.6,163.1h6v2.9h0.1c1.5-2.3,4.1-3.7,6.9-3.6c7.2,0,10.5,5.8,10.5,12.4c0,6.1-3.4,11.9-10.1,11.9
		c-2.7,0.1-5.3-1.2-6.9-3.5h-0.1v11h-6.3L163.6,163.1z M180.7,174.7c0-3.6-1.5-7.4-5.5-7.4s-5.5,3.7-5.5,7.4s1.4,7.3,5.5,7.3
		S180.7,178.4,180.7,174.7L180.7,174.7z"/>
	<path class="st1" d="M195.1,176.1c0.2,4,2.1,5.8,5.6,5.8c2.5,0,4.6-1.6,5-3h5.6c-1.8,5.4-5.6,7.7-10.8,7.7c-7.3,0-11.8-5-11.8-12.1
		c0-6.9,4.8-12.1,11.8-12.1c7.8,0,11.6,6.6,11.2,13.7L195.1,176.1z M205.4,172.1c-0.6-3.2-2-4.9-5-4.9c-2.8-0.1-5.1,2-5.2,4.7
		c0,0.1,0,0.1,0,0.2H205.4z"/>
	<path class="st1" d="M214.5,163.1h6v3.2h0.1c1.5-2.4,4.2-3.8,7-3.8c6.7,0,8.4,3.8,8.4,9.5v14.1h-6.3v-13c0-3.8-1.1-5.6-4-5.6
		c-3.4,0-4.9,1.9-4.9,6.6v12.1h-6.3L214.5,163.1z"/>
	<path class="st1" d="M256.4,183.2L256.4,183.2c-1.6,2.5-4.1,3.6-7.1,3.6c-7,0-10.3-6-10.3-12.3c0-6.2,3.4-11.9,10.2-11.9
		c2.7-0.1,5.3,1.2,6.9,3.4l0,0v-11.6h6.3v31.8h-6L256.4,183.2z M250.9,167.3c-4.1,0-5.6,3.6-5.6,7.3c0,3.6,1.6,7.4,5.6,7.4
		c4.2,0,5.4-3.6,5.4-7.4S255,167.3,250.9,167.3L250.9,167.3z"/>
	<path class="st1" d="M271.5,176.1c0.2,4,2.1,5.8,5.6,5.8c2.5,0,4.6-1.6,5-3h5.6c-1.8,5.4-5.6,7.7-10.8,7.7c-7.3,0-11.8-5-11.8-12.1
		c0-6.9,4.8-12.1,11.8-12.1c7.8,0,11.6,6.6,11.2,13.7L271.5,176.1z M281.8,172.1c-0.6-3.2-2-4.9-5-4.9c-2.8-0.1-5.1,2-5.2,4.7
		c0,0.1,0,0.1,0,0.2H281.8z"/>
	<path class="st1" d="M291,163.1h6v3.2h0.1c1.5-2.4,4.2-3.8,7-3.8c6.7,0,8.4,3.8,8.4,9.5v14.1h-6.3v-13c0-3.8-1.1-5.6-4.1-5.6
		c-3.4,0-4.9,1.9-4.9,6.6v12.1H291L291,163.1z"/>
	<path class="st1" d="M324.5,163.1h4.6v4.2h-4.6v11.4c0,2.1,0.5,2.7,2.7,2.7c0.7,0,1.3,0,2-0.2v4.9c-1.2,0.2-2.5,0.2-3.7,0.2
		c-3.9,0-7.3-0.9-7.3-5.5v-13.6h-3.8v-4.2h3.8v-6.9h6.3L324.5,163.1z"/>
	<path class="st1" d="M331.4,154.4h6.3v31.8h-6.3V154.4z"/>
	<path class="st1" d="M353.2,189c-1.4,3.7-3.6,5.2-7.9,5.2c-1.3,0-2.6-0.1-3.9-0.2v-5.2c1.2,0.1,2.5,0.2,3.7,0.2
		c2.2-0.2,2.9-2.5,2.2-4.3l-8.1-21.6h6.8l5.2,15.8h0.1l5-15.8h6.5L353.2,189z"/>
	<path class="st1" d="M386.7,162.5c7.3,0,11.9,4.8,11.9,12.1s-4.7,12.1-11.9,12.1s-11.9-4.8-11.9-12.1S379.5,162.5,386.7,162.5z
		 M386.7,182c4.3,0,5.6-3.7,5.6-7.3s-1.3-7.4-5.6-7.4s-5.6,3.7-5.6,7.4S382.4,182,386.7,182z"/>
	<path class="st1" d="M401,163.1h6v4.3h0.1c1.3-2.9,4.2-4.8,7.4-4.9c0.5,0,0.9,0.1,1.4,0.2v5.9c-0.7-0.1-1.5-0.2-2.3-0.2
		c-4.6,0-6.2,3.3-6.2,7.4v10.4h-6.3L401,163.1z"/>
	<path class="st1" d="M439.5,184.7c0,3.8-1.3,10.2-11.9,10.2c-4.5,0-9.8-2.1-10.1-7.4h6.3c0.6,2.4,2.5,3.2,4.7,3.2
		c3.5,0,5.1-2.4,5.1-5.7v-3h-0.1c-1.5,2.3-4.1,3.7-6.9,3.6c-6.9,0-9.8-5.2-9.8-11.6c0-6,3.4-11.4,9.9-11.4c3,0,5.3,1,6.9,3.7h0.1
		v-3.1h6L439.5,184.7z M433.5,174.4c0-3.7-1.3-7.1-5.4-7.1c-3.6,0-5.1,3.1-5.1,6.5s1.2,6.9,5.1,6.9
		C431.7,180.7,433.5,177.6,433.5,174.4L433.5,174.4z"/>
	<path class="st1" d="M442.5,170.2c0.4-5.9,5.7-7.7,10.8-7.7c4.6,0,10.1,1,10.1,6.5v12c0,2.1,0.2,4.2,0.8,5.1h-6.4
		c-0.2-0.7-0.4-1.5-0.4-2.2c-2.1,2-4.9,3-7.8,2.8c-4.4,0-7.8-2.2-7.8-6.9c0-5.2,3.9-6.5,7.8-7s7.5-0.5,7.5-3s-1.9-3.1-4.1-3.1
		c-2.4,0-4,1-4.2,3.5L442.5,170.2z M457.1,174.9c-1.1,0.9-3.3,1-5.2,1.3s-3.7,1.1-3.7,3.4s1.8,2.9,3.9,2.9c4.9,0,5.1-3.9,5.1-5.3
		V174.9z"/>
	<path class="st1" d="M467.5,163.1h6v3.2h0.1c1.5-2.4,4.2-3.8,7-3.8c6.7,0,8.4,3.8,8.4,9.5v14.1h-6.3v-13c0-3.8-1.1-5.6-4-5.6
		c-3.4,0-4.9,1.9-4.9,6.6v12.1h-6.3L467.5,163.1z"/>
	<path class="st1" d="M498.6,159.6h-6.3v-5.2h6.3L498.6,159.6z M492.3,163.1h6.3v23h-6.3V163.1z"/>
	<path class="st1" d="M501.3,181.4l12-13.5h-11.2v-4.8h19.4v4.8l-12,13.5h12.8v4.8h-21.1V181.4z"/>
	<path class="st1" d="M530.1,176.1c0.2,4,2.1,5.8,5.7,5.8c2.5,0,4.6-1.6,5-3h5.5c-1.8,5.4-5.6,7.7-10.8,7.7c-7.3,0-11.8-5-11.8-12.1
		c0-6.9,4.8-12.1,11.8-12.1c7.8,0,11.6,6.6,11.2,13.7L530.1,176.1z M540.4,172.1c-0.6-3.2-2-4.9-5-4.9c-2.8-0.1-5.1,2-5.2,4.7
		c0,0.1,0,0.1,0,0.2H540.4z"/>
	<path class="st1" d="M565.9,183.2L565.9,183.2c-1.6,2.5-4.1,3.6-7.1,3.6c-6.9,0-10.3-6-10.3-12.3c0-6.2,3.4-11.9,10.2-11.9
		c2.7-0.1,5.3,1.2,6.9,3.4l0,0v-11.6h6.3v31.8h-6L565.9,183.2z M560.4,167.3c-4.1,0-5.6,3.6-5.6,7.3c0,3.6,1.7,7.4,5.6,7.4
		c4.2,0,5.4-3.6,5.4-7.4S564.5,167.3,560.4,167.3L560.4,167.3z"/>
	<path class="st1" d="M595,160.2h-9.5v-5.9h26v5.9H602v25.9h-7L595,160.2z"/>
	<path class="st1" d="M614.3,154.4H638v5.9h-16.8v6.8h15.4v5.4h-15.4v7.8h17.1v5.9h-24.1V154.4z"/>
	<path class="st1" d="M641.3,154.4H655c8.2,0,14.4,5.2,14.4,15.7c0,9.2-4.7,16.1-14.4,16.1h-13.7V154.4z M648.3,180.3h6.2
		c4,0,7.9-2.5,7.9-9.5c0-6.4-2.2-10.5-9.2-10.5h-5L648.3,180.3z"/>
	<path class="st1" d="M689.5,176.1c0.2,4,2.1,5.8,5.7,5.8c2.5,0,4.6-1.6,5-3h5.6c-1.8,5.4-5.6,7.7-10.8,7.7c-7.3,0-11.8-5-11.8-12.1
		c0-6.9,4.8-12.1,11.8-12.1c7.8,0,11.6,6.6,11.2,13.7L689.5,176.1z M699.7,172.1c-0.6-3.2-2-4.9-5-4.9c-2.8-0.1-5.1,2-5.2,4.7
		c0,0.1,0,0.1,0,0.2H699.7z"/>
	<path class="st1" d="M720.7,186.1h-7l-7.9-23h6.6l4.8,15.7h0.1l4.9-15.7h6.3L720.7,186.1z"/>
	<path class="st1" d="M734.6,176.1c0.2,4,2.1,5.8,5.7,5.8c2.5,0,4.6-1.6,5-3h5.6c-1.8,5.4-5.6,7.7-10.8,7.7c-7.3,0-11.8-5-11.8-12.1
		c0-6.9,4.8-12.1,11.8-12.1c7.8,0,11.6,6.6,11.2,13.7L734.6,176.1z M744.9,172.1c-0.6-3.2-2-4.9-5-4.9c-2.8-0.1-5.1,2-5.2,4.7
		c0,0.1,0,0.1,0,0.2H744.9z"/>
	<path class="st1" d="M754,163.1h6v3.2h0.1c1.5-2.4,4.2-3.8,7-3.8c6.7,0,8.4,3.8,8.4,9.5v14.1h-6.3v-13c0-3.8-1.1-5.6-4-5.6
		c-3.4,0-4.9,1.9-4.9,6.6v12.1h-6.3L754,163.1z"/>
	<path class="st1" d="M787.5,163.1h4.6v4.2h-4.6v11.4c0,2.1,0.5,2.7,2.7,2.7c0.7,0,1.3,0,2-0.2v4.9c-1.2,0.2-2.5,0.2-3.7,0.2
		c-3.9,0-7.2-0.9-7.2-5.5v-13.6h-3.8v-4.2h3.8v-6.9h6.3L787.5,163.1z"/>
	<path class="st0" d="M39.3,49.2H9.6V22.1h91.9v27.1H71.8V128H39.3V49.2z"/>
	<path class="st0" d="M106.5,22.1h89.2v27.1h-56.6v13.2h56.6v25.2h-56.6v13.2h56.6V128h-89.2V22.1z"/>
	<path class="st0" d="M201.3,22.1h53.5c35.3,0,47.7,26.1,47.7,52.8c0,32.5-17.2,53.1-54.1,53.1h-47.1V22.1z M233.9,100.8h12.7
		c20.3,0,23.3-16.5,23.3-26.4c0-6.7-2.1-25.2-25.7-25.2h-10.4L233.9,100.8z"/>
	<path class="st0" d="M349.3,87.1l-9.9-16.5l-9.7,16.5h-23.9l22.7-33.4l-21.8-31.9h23.9l8.9,15.8l9.1-15.8h23.9l-21.8,31.9
		l22.7,33.4H349.3z"/>
	<text transform="matrix(1 0 0 1 387.1574 127.7413)" class="st1 st2 st3">U</text>
	<text transform="matrix(1 0 0 1 493.2474 127.7413)" class="st1 st2 st3 st4">T</text>
	<text transform="matrix(1 0 0 1 566.6974 127.7413)" class="st1 st2 st3">sukuba</text>
</g>
</svg>
