<svg xmlns="http://www.w3.org/2000/svg" viewBox="0 0 320 320"><defs><style>.cls-1{fill:none;}.cls-2{fill:#fff;}</style></defs><g id="LINE_LOGO" data-name="LINE LOGO"><rect class="cls-1" x="0.03" width="320" height="320"/><path class="cls-2" d="M320,144.94C320,73.34,248.23,15.1,160,15.1S0,73.34,0,144.94C0,209.12,56.92,262.88,133.81,273c5.21,1.13,12.3,3.44,14.1,7.89,1.61,4,1.05,10.38.51,14.47,0,0-1.87,11.29-2.28,13.69-.7,4.05-3.22,15.83,13.86,8.63s92.14-54.26,125.71-92.89h0C308.89,199.4,320,173.59,320,144.94ZM103.55,183.23a3.06,3.06,0,0,1-3.06,3.05H55.54a3.06,3.06,0,0,1-3-3.05v0h0V113.4a3.06,3.06,0,0,1,3-3.06H66.89a3.06,3.06,0,0,1,3,3.06v55.42h30.55a3.07,3.07,0,0,1,3.06,3.06Zm27.06,0a3.06,3.06,0,0,1-3.05,3.05H116.21a3.06,3.06,0,0,1-3.06-3.05V113.4a3.06,3.06,0,0,1,3.06-3.06h11.35a3.06,3.06,0,0,1,3.05,3.06Zm77.25,0a3.06,3.06,0,0,1-3.06,3.05H193.52a3,3,0,0,1-.8-.11h0l-.21-.07-.1,0-.15-.07-.15-.07-.09,0-.19-.11,0,0A3,3,0,0,1,191,185l-32-43.2v41.47a3.06,3.06,0,0,1-3.06,3.05H144.58a3.06,3.06,0,0,1-3.06-3.05V113.4a3.06,3.06,0,0,1,3.06-3.06h11.55l.16,0,.13,0,.18,0,.11,0,.19.06.1,0,.18.08.09,0a1,1,0,0,1,.17.1l.1,0,.16.11.08.07.17.14.05,0a1.7,1.7,0,0,1,.19.19l0,0a2.67,2.67,0,0,1,.24.32l32,43.14V113.4a3.06,3.06,0,0,1,3.06-3.06H204.8a3.06,3.06,0,0,1,3.06,3.06Zm62-58.49a3.06,3.06,0,0,1-3.06,3.06H236.22v11.78h30.55a3.07,3.07,0,0,1,3.06,3.06V154a3.06,3.06,0,0,1-3.06,3.06H236.22v11.78h30.55a3.07,3.07,0,0,1,3.06,3.06v11.35a3.06,3.06,0,0,1-3.06,3.05H221.82a3,3,0,0,1-3-3.05v0h0v-69.7h0v-.06a3.05,3.05,0,0,1,3-3.06h44.95a3.07,3.07,0,0,1,3.06,3.06Z"/></g></svg>