<svg xmlns="http://www.w3.org/2000/svg" viewBox="0 0 320 320"><defs><style>.cls-1{fill:#fff;}</style></defs><g id="レイヤー_2" data-name="レイヤー 2"><g id="LINE_LOGO" data-name="LINE LOGO"><rect width="320" height="320" rx="72.14"/><path class="cls-1" d="M266.66,144.92c0-47.74-47.86-86.58-106.69-86.58S53.28,97.18,53.28,144.92c0,42.8,38,78.65,89.22,85.42,3.48.75,8.21,2.29,9.4,5.26,1.08,2.7.71,6.93.35,9.65,0,0-1.25,7.53-1.52,9.13-.47,2.7-2.15,10.55,9.24,5.76s61.44-36.18,83.82-61.95h0C259.25,181.24,266.66,164,266.66,144.92ZM122.33,170.45a2,2,0,0,1-2,2h-30a2,2,0,0,1-2-2v0h0V123.89a2,2,0,0,1,2-2h7.56a2,2,0,0,1,2,2v37h20.37a2,2,0,0,1,2,2Zm18,0a2,2,0,0,1-2,2h-7.56a2,2,0,0,1-2-2V123.89a2,2,0,0,1,2-2h7.56a2,2,0,0,1,2,2Zm51.51,0a2,2,0,0,1-2,2h-7.52a2.42,2.42,0,0,1-.54-.07h0l-.14,0-.07,0-.1,0-.1-.05-.06,0-.12-.08h0a2,2,0,0,1-.52-.52l-21.33-28.8v27.64a2,2,0,0,1-2,2h-7.57a2,2,0,0,1-2-2V123.89a2,2,0,0,1,2-2h7.71l.11,0h.08l.12,0,.08,0,.12,0,.07,0,.11,0,.07,0,.11.06.06,0,.11.08.06,0,.11.09,0,0,.12.12v0a1.2,1.2,0,0,1,.17.21l21.3,28.77V123.89a2,2,0,0,1,2-2h7.56a2,2,0,0,1,2,2Zm41.32-39a2,2,0,0,1-2,2H210.79v7.85h20.37a2,2,0,0,1,2,2V151a2,2,0,0,1-2,2H210.79v7.86h20.37a2,2,0,0,1,2,2v7.56a2,2,0,0,1-2,2h-30a2,2,0,0,1-2-2v0h0V123.94h0v0a2,2,0,0,1,2-2h30a2,2,0,0,1,2,2Z"/></g></g></svg>