<?xml version="1.0" encoding="utf-8"?>
<!-- Generator: Adobe Illustrator 25.2.3, SVG Export Plug-In . SVG Version: 6.00 Build 0)  -->
<svg version="1.1" id="レイヤー_1" xmlns="http://www.w3.org/2000/svg" xmlns:xlink="http://www.w3.org/1999/xlink" x="0px"
	 y="0px" viewBox="0 0 1920 450" style="enable-background:new 0 0 1920 450;" xml:space="preserve">
<style type="text/css">
	.st0{fill:none;stroke:#FFFFFF;stroke-width:5;stroke-miterlimit:10;}
</style>
<polygon class="st0" points="259.1,94.7 239.4,143.5 239.4,365.7 259.1,365.7 278.9,365.7 278.9,143.5 "/>
<polygon class="st0" points="297.1,365.7 297.1,294 288,271.4 278.9,294 278.9,365.7 "/>
<polygon class="st0" points="239.4,365.7 239.4,294 230.3,271.4 221.1,294 221.1,365.7 "/>
<path class="st0" d="M522.8,217.3c51,0,95.9,33.5,110.5,82.3h-221C426.9,250.8,471.8,217.3,522.8,217.3z"/>
<rect x="367.1" y="299.6" class="st0" width="359.7" height="66.6"/>
<path class="st0" d="M496.5,91.2c0-13.9-11.3-25.2-25.3-25.2l0,0c-1.2,0-2.4,0.1-3.6,0.2c-4-17.2-21.2-27.9-38.4-23.9
	c-14.5,3.4-24.8,16.3-24.8,31.2c0,0.6,0,1.2,0,1.7c-10.9,4.7-16,17.3-11.3,28.2c3.4,7.9,11.2,13.1,19.8,13.1c0.2,0,0.3,0,0.5,0l0,0
	h58C485.3,116.4,496.5,105.1,496.5,91.2z"/>
<line class="st0" x1="1243.9" y1="181.3" x2="1352.3" y2="221.4"/>
<polygon class="st0" points="1260.3,2.7 1211,2.7 1161.8,2.7 1161.8,84.3 1195.3,84.3 1186,365.7 1211,365.7 1236.1,365.7 
	1226.7,84.3 1260.3,84.3 "/>
<rect x="1195.1" y="40.4" class="st0" width="31.8" height="44.1"/>
<path class="st0" d="M1756.5,75.2c0-13.9-11.3-25.2-25.3-25.2l0,0c-1.2,0-2.4,0.1-3.6,0.2c-4-17.2-21.2-27.9-38.4-23.9
	c-14.5,3.4-24.8,16.3-24.8,31.2c0,0.6,0,1.2,0,1.7c-10.9,4.7-16,17.3-11.3,28.2c3.4,7.9,11.2,13.1,19.8,13.1c0.2,0,0.3,0,0.5,0l0,0
	h58C1745.3,100.4,1756.5,89.1,1756.5,75.2z"/>
<path class="st0" d="M1508.5,117.2c0-13.9-11.3-25.2-25.3-25.2l0,0c-1.2,0-2.4,0.1-3.6,0.2c-4-17.2-21.2-27.9-38.4-23.9
	c-14.5,3.4-24.8,16.3-24.8,31.2c0,0.6,0,1.2,0,1.7c-10.9,4.7-16,17.3-11.3,28.2c3.4,7.9,11.2,13.1,19.8,13.1c0.2,0,0.3,0,0.5,0l0,0
	h58C1497.3,142.4,1508.5,131.1,1508.5,117.2z"/>
<rect x="1326" y="231.5" class="st0" width="351" height="20"/>
<polyline class="st0" points="1335.2,366.1 1788.3,366.1 1788.3,307.6 1788.3,270.2 1788.3,232.7 1788.3,232.7 1788.3,195.2 
	1719.3,195.2 1719.3,231.5 1743.3,231.5 1743.3,270.2 1698.3,270.2 1698.3,307.6 1335.2,307.6 1335.2,366.1 "/>
<line class="st0" x1="1417.7" y1="366.5" x2="1417.7" y2="308"/>
<line class="st0" x1="1499.5" y1="364.2" x2="1499.5" y2="305.8"/>
<line class="st0" x1="1581.3" y1="364.2" x2="1581.3" y2="305.8"/>
<rect x="1326" y="270.7" class="st0" width="350.5" height="20"/>
<path class="st0" d="M935.9,219.3H854c-5.3,21-27.1,36.9-53.6,38.2V279l41.2,25.4h229l41.3-25.4v-21.6c-1.2,0-2.3,0.1-3.5,0.1
	c-27.9,0-51.2-16.4-56.8-38.2H975"/>
<path class="st0" d="M1014.1,262.6l-8.7-6.3c-4.7-3.4-10.3-5.2-16-5.1h-66.8c-5.7,0-11.3,1.8-16,5.1l-8.7,6.3
	c-5.5,3.9-9,9.8-9.9,16.4h136C1023.2,272.4,1019.6,266.5,1014.1,262.6z"/>
<path class="st0" d="M956.1,178c0,46.6-68.9,84.7-155.7,87.3v13.8l41.2,24.6h229.1l41.2-24.6v-13.8
	C1025,262.7,956.1,224.6,956.1,178z"/>
<rect x="1013.6" y="303.7" class="st0" width="57" height="61.7"/>
<rect x="841.5" y="303.7" class="st0" width="57" height="61.7"/>
<rect x="412.5" y="341.5" class="st0" width="221" height="24.1"/>
<line class="st0" x1="800.3" y1="279.1" x2="1111.8" y2="279.1"/>
<polygon class="st0" points="1743.3,231.5 1310.7,231.3 1310.3,307.6 1698.3,307.6 1698.3,270.2 1743.3,270.2 "/>
<polyline class="st0" points="304.7,279.1 675.6,92.4 777.7,146.8 924.6,63 1178.8,157.1 "/>
<rect x="898.5" y="303.7" class="st0" width="115.1" height="61.7"/>
<line class="st0" x1="131" y1="366.5" x2="211.1" y2="327.3"/>
<path class="st0" d="M127,118.4c0-13.9-11.3-25.2-25.3-25.2l0,0c-1.2,0-2.4,0.1-3.6,0.2c-4-17.2-21.2-27.9-38.4-23.9
	c-14.5,3.4-24.8,16.3-24.8,31.2c0,0.6,0,1.2,0,1.7c-10.9,4.7-16,17.3-11.3,28.2c3.4,7.9,11.2,13.1,19.8,13.1c0.2,0,0.3,0,0.5,0l0,0
	h58C115.8,143.6,127,132.3,127,118.4z"/>
<line class="st0" x1="0" y1="366.5" x2="1920" y2="366.5"/>
<line class="st0" x1="1161.8" y1="2.7" x2="1195.1" y2="40.4"/>
<line class="st0" x1="1260.3" y1="2.7" x2="1226.9" y2="40.4"/>
<g>
	<polygon class="st0" points="1098.6,407 1286.3,407 1295.5,426.8 1291.3,439 1098.6,439 	"/>
	<polygon class="st0" points="233.5,439 40.9,439 36.7,426.8 45.8,407 233.5,407 	"/>
	<g>
		<rect x="244.6" y="407" class="st0" width="202.5" height="32"/>
		<rect x="265.7" y="407" class="st0" width="40" height="19"/>
		<rect x="325.8" y="407" class="st0" width="40" height="19"/>
		<rect x="385.7" y="407" class="st0" width="40" height="19"/>
	</g>
	<g>
		<rect x="458.1" y="407" class="st0" width="202.5" height="32"/>
		<rect x="479.2" y="407" class="st0" width="40" height="19"/>
		<rect x="539.3" y="407" class="st0" width="40" height="19"/>
		<rect x="599.2" y="407" class="st0" width="40" height="19"/>
	</g>
	<g>
		<rect x="671.6" y="407" class="st0" width="202.5" height="32"/>
		<rect x="692.7" y="407" class="st0" width="40" height="19"/>
		<rect x="752.8" y="407" class="st0" width="40" height="19"/>
		<rect x="812.7" y="407" class="st0" width="40" height="19"/>
	</g>
	<g>
		<rect x="885.1" y="407" class="st0" width="202.5" height="32"/>
		<rect x="906.2" y="407" class="st0" width="40" height="19"/>
		<rect x="966.3" y="407" class="st0" width="40" height="19"/>
		<rect x="1026.2" y="407" class="st0" width="40" height="19"/>
	</g>
	<g>
		<rect x="1112.6" y="407" class="st0" width="40" height="19"/>
		<rect x="1172.6" y="407.3" class="st0" width="40" height="19"/>
		<rect x="1232.6" y="407" class="st0" width="40" height="19"/>
	</g>
	<g>
		<rect x="59.6" y="407" class="st0" width="40" height="19"/>
		<rect x="119.6" y="407.3" class="st0" width="40" height="19"/>
		<rect x="179.6" y="407" class="st0" width="40" height="19"/>
	</g>
</g>
<line class="st0" x1="0" y1="450" x2="1150" y2="450"/>
</svg>
