<?xml version="1.0" encoding="utf-8"?>
<!-- Generator: Adobe Illustrator 25.2.3, SVG Export Plug-In . SVG Version: 6.00 Build 0)  -->
<svg version="1.1" id="レイヤー_1" xmlns="http://www.w3.org/2000/svg" xmlns:xlink="http://www.w3.org/1999/xlink" x="0px"
	 y="0px" viewBox="0 0 1670.6 368.8" style="enable-background:new 0 0 1670.6 368.8;" xml:space="preserve">
<style type="text/css">
	.st0{fill:none;stroke:#FFFFFF;stroke-width:5;stroke-miterlimit:10;}
</style>
<polygon class="st0" points="138.9,94.5 119.2,143.3 119.2,365.5 138.9,365.5 158.7,365.5 158.7,143.3 "/>
<polygon class="st0" points="176.9,365.5 176.9,293.8 167.8,271.2 158.7,293.8 158.7,365.5 "/>
<polygon class="st0" points="119.2,365.5 119.2,293.8 110.1,271.2 100.9,293.8 100.9,365.5 "/>
<path class="st0" d="M402.6,217.1c51,0,95.9,33.5,110.5,82.3H292.1C306.7,250.6,351.6,217.1,402.6,217.1z"/>
<rect x="246.9" y="299.4" class="st0" width="359.7" height="66.6"/>
<path class="st0" d="M376.3,91c0-13.9-11.3-25.2-25.3-25.2c0,0,0,0,0,0c-1.2,0-2.4,0.1-3.6,0.2c-4-17.2-21.2-27.9-38.4-23.9
	c-14.5,3.4-24.8,16.3-24.8,31.2c0,0.6,0,1.2,0,1.7c-10.9,4.7-16,17.3-11.3,28.2c3.4,7.9,11.2,13.1,19.8,13.1c0.2,0,0.3,0,0.5,0l0,0
	h58C365.1,116.2,376.3,104.9,376.3,91z"/>
<polyline class="st0" points="1668.8,366.3 10.8,366.3 90.9,327.1 "/>
<line class="st0" x1="1123.7" y1="181.1" x2="1232.1" y2="221.2"/>
<polygon class="st0" points="1140.1,2.5 1090.8,2.5 1041.6,2.5 1041.6,84.1 1075.1,84.1 1065.8,365.5 1090.8,365.5 1115.8,365.5 
	1106.5,84.1 1140.1,84.1 "/>
<rect x="1074.9" y="40.2" class="st0" width="31.8" height="44.1"/>
<polyline class="st0" points="1041.6,2.5 1074.9,40.2 1106.7,40.2 1140.1,2.5 "/>
<path class="st0" d="M1636.3,75c0-13.9-11.3-25.2-25.3-25.2c0,0,0,0,0,0c-1.2,0-2.4,0.1-3.6,0.2c-4-17.2-21.2-27.9-38.4-23.9
	c-14.5,3.4-24.8,16.3-24.8,31.2c0,0.6,0,1.2,0,1.7c-10.9,4.7-16,17.3-11.3,28.2c3.4,7.9,11.2,13.1,19.8,13.1c0.2,0,0.3,0,0.5,0l0,0
	h58C1625.1,100.2,1636.3,88.9,1636.3,75z"/>
<path class="st0" d="M1388.3,117c0-13.9-11.3-25.2-25.3-25.2c0,0,0,0,0,0c-1.2,0-2.4,0.1-3.6,0.2c-4-17.2-21.2-27.9-38.4-23.9
	c-14.5,3.4-24.8,16.3-24.8,31.2c0,0.6,0,1.2,0,1.7c-10.9,4.7-16,17.3-11.3,28.2c3.4,7.9,11.2,13.1,19.8,13.1c0.2,0,0.3,0,0.5,0l0,0
	h58C1377.1,142.2,1388.3,130.9,1388.3,117z"/>
<rect x="1205.3" y="231.3" class="st0" width="351" height="20"/>
<polyline class="st0" points="1215,365.9 1668.1,365.9 1668.1,307.4 1668.1,270 1668.1,232.5 1668.1,232.5 1668.1,195 1599.1,195 
	1599.1,231.3 1623.1,231.3 1623.1,270 1578.1,270 1578.1,307.4 1215,307.4 1215,365.9 "/>
<line class="st0" x1="1297.5" y1="366.3" x2="1297.5" y2="307.8"/>
<line class="st0" x1="1379.3" y1="364" x2="1379.3" y2="305.6"/>
<line class="st0" x1="1461.1" y1="364" x2="1461.1" y2="305.6"/>
<rect x="1205.8" y="270.5" class="st0" width="350.5" height="20"/>
<path class="st0" d="M815.7,219.1h-81.9c-5.3,21-27.1,36.9-53.6,38.2v21.5l41.2,25.4h229l41.3-25.4v-21.6c-1.2,0-2.3,0.1-3.5,0.1
	c-27.9,0-51.2-16.4-56.8-38.2h-76.5"/>
<path class="st0" d="M893.9,262.4l-8.7-6.3c-4.7-3.4-10.3-5.2-16-5.1h-66.8c-5.7,0-11.3,1.8-16,5.1l-8.7,6.3
	c-5.5,3.9-9,9.8-9.9,16.4h136C903,272.2,899.4,266.3,893.9,262.4z"/>
<path class="st0" d="M835.8,177.8c0,46.6-68.9,84.7-155.7,87.3v13.8l41.2,24.6h229.1l41.2-24.6v-13.8
	C904.8,262.5,835.8,224.4,835.8,177.8z"/>
<rect x="893.4" y="303.5" class="st0" width="57" height="61.7"/>
<rect x="721.3" y="303.5" class="st0" width="57" height="61.7"/>
<rect x="292.3" y="341.3" class="st0" width="221" height="24.1"/>
<line class="st0" x1="680.1" y1="278.9" x2="991.6" y2="278.9"/>
<polygon class="st0" points="1623.1,231.3 1190.5,231.1 1190.1,307.4 1578.1,307.4 1578.1,270 1623.1,270 "/>
<polyline class="st0" points="184.5,278.9 555.4,92.2 657.5,146.6 804.3,62.8 1058.6,156.9 "/>
<rect x="778.2" y="303.5" class="st0" width="115.1" height="61.7"/>
<line class="st0" x1="10.8" y1="366.3" x2="90.9" y2="327.1"/>
</svg>
