<svg xmlns="http://www.w3.org/2000/svg" viewBox="0 0 1670.55 368.78"><defs><style>.cls-1{fill:none;stroke:#fff;stroke-miterlimit:10;stroke-width:5px;}</style></defs><g id="レイヤー_2" data-name="レイヤー 2"><g id="レイヤー_1-2" data-name="レイヤー 1"><polygon class="cls-1" points="138.94 94.48 119.19 143.3 119.19 365.5 138.94 365.5 158.7 365.5 158.7 143.3 138.94 94.48"/><polygon class="cls-1" points="176.94 365.5 176.94 293.75 167.82 271.21 158.7 293.75 158.7 365.5 176.94 365.5"/><polygon class="cls-1" points="119.19 365.5 119.19 293.75 110.07 271.21 100.94 293.75 100.94 365.5 119.19 365.5"/><path class="cls-1" d="M402.63,217.08a115.37,115.37,0,0,1,110.54,82.35H292.09A115.39,115.39,0,0,1,402.63,217.08Z"/><rect class="cls-1" x="246.94" y="299.44" width="359.67" height="66.6"/><path class="cls-1" d="M376.29,91A25.24,25.24,0,0,0,351,65.78a26.46,26.46,0,0,0-3.58.25,32,32,0,0,0-63.17,7.25c0,.58,0,1.15,0,1.73a21.5,21.5,0,0,0,8.45,41.27c.17,0,.34,0,.5,0v0h58A25.24,25.24,0,0,0,376.29,91Z"/><polyline class="cls-1" points="1668.79 366.28 10.79 366.28 90.9 327.06"/><line class="cls-1" x1="1123.74" y1="181.07" x2="1232.09" y2="221.2"/><polyline class="cls-1" points="184.51 278.86 555.43 92.22 657.49 146.58 804.35 62.78 1058.61 156.95"/><polygon class="cls-1" points="1140.07 2.5 1090.83 2.5 1041.58 2.5 1041.58 84.13 1075.13 84.13 1065.81 365.5 1090.83 365.5 1115.85 365.5 1106.52 84.13 1140.07 84.13 1140.07 2.5"/><rect class="cls-1" x="1074.94" y="40.23" width="31.77" height="44.08"/><polyline class="cls-1" points="1041.58 2.5 1074.94 40.23 1106.71 40.23 1140.07 2.5"/><path class="cls-1" d="M1636.29,75A25.24,25.24,0,0,0,1611,49.78a26.46,26.46,0,0,0-3.58.25,32,32,0,0,0-63.17,7.25c0,.58,0,1.15,0,1.73a21.5,21.5,0,0,0,8.45,41.27c.17,0,.34,0,.5,0v0h58A25.24,25.24,0,0,0,1636.29,75Z"/><path class="cls-1" d="M1388.29,117A25.24,25.24,0,0,0,1363,91.78a26.46,26.46,0,0,0-3.58.25,32,32,0,0,0-63.17,7.25c0,.58,0,1.15,0,1.73a21.5,21.5,0,0,0,8.45,41.27c.17,0,.34,0,.5,0v0h58A25.24,25.24,0,0,0,1388.29,117Z"/><rect class="cls-1" x="1205.29" y="231.28" width="351" height="20"/><polyline class="cls-1" points="1214.98 365.87 1668.05 365.87 1668.05 307.42 1668.05 269.95 1668.05 232.48 1668.05 232.48 1668.05 195.01 1599.11 195.01 1599.11 231.28 1623.08 231.28 1623.08 269.95 1578.12 269.95 1578.12 307.42 1214.98 307.42 1214.98 365.87"/><line class="cls-1" x1="1297.49" y1="366.28" x2="1297.49" y2="307.83"/><line class="cls-1" x1="1379.29" y1="364.05" x2="1379.29" y2="305.6"/><line class="cls-1" x1="1461.08" y1="364.05" x2="1461.08" y2="305.6"/><polyline class="cls-1" points="1213.16 307.42 1190.07 307.42 1190.47 231.12 1597.79 231.28"/><rect class="cls-1" x="1205.77" y="270.52" width="350.49" height="20"/><path class="cls-1" d="M815.65,219.15H733.74c-5.28,21-27.07,36.93-53.61,38.17v21.54l41.16,25.42h229l41.29-25.42V257.31c-1.16.05-2.33.09-3.51.09-27.87,0-51.16-16.39-56.83-38.25H854.75"/><path class="cls-1" d="M893.93,262.42l-8.69-6.33a27.07,27.07,0,0,0-16-5.13H802.42a27.12,27.12,0,0,0-16,5.13l-8.68,6.33a24,24,0,0,0-9.92,16.44h136A24,24,0,0,0,893.93,262.42Z"/><path class="cls-1" d="M835.85,177.78c0,46.62-68.9,84.71-155.72,87.28v13.8l41.17,24.59H950.4l41.18-24.59v-13.8C904.76,262.49,835.85,224.4,835.85,177.78Z"/><rect class="cls-1" x="893.42" y="303.45" width="56.98" height="61.67"/><rect class="cls-1" x="721.3" y="303.45" width="56.98" height="61.67"/><rect class="cls-1" x="292.29" y="341.28" width="221" height="24.07"/><line class="cls-1" x1="680.13" y1="278.86" x2="991.58" y2="278.86"/></g></g></svg>