<svg xmlns="http://www.w3.org/2000/svg" viewBox="0 0 1025.9 172.97"><defs><style>.cls-1{fill:#fff;}</style></defs><g id="レイヤー_2" data-name="レイヤー 2"><g id="Layer_1" data-name="Layer 1"><path class="cls-1" d="M10.6,152.14,3,141.23h7.21l4.05,6,4-6h7L17.73,152l8.5,12.24H19L14.21,157,9.4,164.25H2.33Z"/><path class="cls-1" d="M56.18,150.63H33.7v-4.77H56.18Zm0,9.52H33.7v-4.76H56.18Z"/><path class="cls-1" d="M73.4,137.67H67.08v-5.2H73.4Zm-6.32,3.56H73.4v23H67.08Z"/><path class="cls-1" d="M77.5,141.23h6v3.21h.13a8.21,8.21,0,0,1,7-3.83c6.72,0,8.41,3.78,8.41,9.48v14.16H92.76v-13c0-3.78-1.11-5.65-4.05-5.65-3.42,0-4.89,1.91-4.89,6.58v12.07H77.5Z"/><path class="cls-1" d="M119.42,161.31h-.09c-1.46,2.49-4,3.56-7,3.56-6.95,0-10.33-6-10.33-12.33,0-6.19,3.43-11.93,10.19-11.93a8.06,8.06,0,0,1,6.86,3.43h0V132.47h6.32v31.78h-6Zm-5.52-15.94c-4.13,0-5.56,3.56-5.56,7.35,0,3.6,1.65,7.39,5.56,7.39,4.19,0,5.43-3.65,5.43-7.44S118,145.37,113.9,145.37Z"/><path class="cls-1" d="M134.51,154.28c.18,4,2.14,5.83,5.65,5.83,2.54,0,4.59-1.56,5-3h5.56c-1.78,5.43-5.56,7.75-10.77,7.75-7.25,0-11.75-5-11.75-12.11,0-6.9,4.76-12.15,11.75-12.15,7.83,0,11.62,6.59,11.17,13.67Zm10.28-4c-.58-3.2-2-4.9-5-4.9a5,5,0,0,0-5.25,4.9Z"/><path class="cls-1" d="M154,141.23h6v2.94h.09a7.64,7.64,0,0,1,6.85-3.56c7.21,0,10.46,5.83,10.46,12.37,0,6.15-3.38,11.89-10.1,11.89a8.16,8.16,0,0,1-6.9-3.47h-.09v10.95H154Zm17.09,11.58c0-3.65-1.47-7.44-5.52-7.44s-5.47,3.7-5.47,7.44,1.42,7.3,5.52,7.3S171.05,156.55,171.05,152.81Z"/><path class="cls-1" d="M185.47,154.28c.18,4,2.14,5.83,5.65,5.83,2.54,0,4.59-1.56,5-3h5.56c-1.78,5.43-5.56,7.75-10.77,7.75-7.25,0-11.75-5-11.75-12.11,0-6.9,4.76-12.15,11.75-12.15,7.83,0,11.62,6.59,11.17,13.67Zm10.28-4c-.58-3.2-2-4.9-5-4.9a5,5,0,0,0-5.25,4.9Z"/><path class="cls-1" d="M204.92,141.23h6v3.21h.13a8.21,8.21,0,0,1,7-3.83c6.73,0,8.42,3.78,8.42,9.48v14.16h-6.32v-13c0-3.78-1.12-5.65-4.05-5.65-3.43,0-4.9,1.91-4.9,6.58v12.07h-6.32Z"/><path class="cls-1" d="M246.85,161.31h-.09c-1.47,2.49-4,3.56-7,3.56-6.94,0-10.33-6-10.33-12.33,0-6.19,3.43-11.93,10.2-11.93a8.05,8.05,0,0,1,6.85,3.43h0V132.47h6.32v31.78h-6Zm-5.52-15.94c-4.14,0-5.57,3.56-5.57,7.35,0,3.6,1.65,7.39,5.57,7.39,4.18,0,5.43-3.65,5.43-7.44S245.42,145.37,241.33,145.37Z"/><path class="cls-1" d="M261.93,154.28c.18,4,2.14,5.83,5.66,5.83,2.53,0,4.58-1.56,5-3h5.56c-1.78,5.43-5.56,7.75-10.77,7.75-7.25,0-11.75-5-11.75-12.11,0-6.9,4.76-12.15,11.75-12.15,7.84,0,11.62,6.59,11.17,13.67Zm10.28-4c-.57-3.2-1.95-4.9-5-4.9a5,5,0,0,0-5.25,4.9Z"/><path class="cls-1" d="M281.38,141.23h6v3.21h.13a8.24,8.24,0,0,1,7-3.83c6.72,0,8.41,3.78,8.41,9.48v14.16h-6.32v-13c0-3.78-1.11-5.65-4-5.65-3.43,0-4.9,1.91-4.9,6.58v12.07h-6.32Z"/><path class="cls-1" d="M314.9,141.23h4.62v4.23H314.9v11.4c0,2.13.53,2.67,2.67,2.67a9.9,9.9,0,0,0,1.95-.18v4.94a23.85,23.85,0,0,1-3.69.22c-3.87,0-7.26-.89-7.26-5.47V145.46h-3.82v-4.23h3.82v-6.89h6.33Z"/><path class="cls-1" d="M321.84,132.47h6.32v31.78h-6.32Z"/><path class="cls-1" d="M343.6,167.14c-1.38,3.69-3.56,5.21-7.92,5.21a35.87,35.87,0,0,1-3.87-.23v-5.2a34.33,34.33,0,0,0,3.69.22c2.18-.22,2.89-2.49,2.18-4.32l-8.1-21.59h6.77l5.2,15.76h.09l5-15.76h6.55Z"/><path class="cls-1" d="M377.12,140.61c7.25,0,11.92,4.81,11.92,12.15s-4.67,12.11-11.92,12.11-11.89-4.81-11.89-12.11S369.91,140.61,377.12,140.61Zm0,19.5c4.31,0,5.6-3.7,5.6-7.35s-1.29-7.39-5.6-7.39-5.57,3.7-5.57,7.39S372.84,160.11,377.12,160.11Z"/><path class="cls-1" d="M391.36,141.23h6v4.28h.08a8.14,8.14,0,0,1,7.35-4.9,4.86,4.86,0,0,1,1.38.22v5.88a11.81,11.81,0,0,0-2.27-.22c-4.63,0-6.23,3.33-6.23,7.39v10.37h-6.32Z"/><path class="cls-1" d="M429.9,162.78c0,3.78-1.33,10.19-11.93,10.19-4.54,0-9.83-2.14-10.15-7.39h6.28c.58,2.36,2.49,3.16,4.72,3.16,3.51,0,5.12-2.4,5.07-5.7v-3h-.09a7.78,7.78,0,0,1-6.9,3.56c-6.89,0-9.83-5.25-9.83-11.57,0-6,3.43-11.4,9.88-11.4,3,0,5.34,1,6.85,3.7h.09v-3.08h6Zm-6-10.33c0-3.74-1.29-7.08-5.38-7.08-3.56,0-5.12,3.12-5.12,6.55s1.24,6.9,5.12,6.9C422.11,158.82,423.89,155.74,423.89,152.45Z"/><path class="cls-1" d="M432.93,148.31c.35-5.92,5.65-7.7,10.81-7.7,4.59,0,10.11,1,10.11,6.54v12c0,2.09.22,4.18.8,5.12h-6.41a9.39,9.39,0,0,1-.45-2.23,10.55,10.55,0,0,1-7.74,2.85c-4.36,0-7.84-2.18-7.84-6.9,0-5.21,3.92-6.45,7.84-7s7.48-.44,7.48-3-1.87-3.12-4.1-3.12c-2.4,0-4,1-4.18,3.47Zm14.6,4.67c-1.07.94-3.3,1-5.26,1.34s-3.74,1.07-3.74,3.38,1.83,2.94,3.88,2.94c4.94,0,5.12-3.92,5.12-5.3Z"/><path class="cls-1" d="M457.85,141.23h6v3.21H464a8.21,8.21,0,0,1,7-3.83c6.73,0,8.42,3.78,8.42,9.48v14.16h-6.32v-13c0-3.78-1.12-5.65-4.05-5.65-3.43,0-4.9,1.91-4.9,6.58v12.07h-6.32Z"/><path class="cls-1" d="M489,137.67h-6.32v-5.2H489Zm-6.32,3.56H489v23h-6.32Z"/><path class="cls-1" d="M491.63,159.48l12-13.48H492.52v-4.77h19.41V146l-12,13.48h12.82v4.77H491.63Z"/><path class="cls-1" d="M520.47,154.28c.18,4,2.14,5.83,5.65,5.83,2.54,0,4.59-1.56,5-3h5.56c-1.78,5.43-5.56,7.75-10.77,7.75-7.25,0-11.75-5-11.75-12.11,0-6.9,4.76-12.15,11.75-12.15,7.83,0,11.62,6.59,11.17,13.67Zm10.28-4c-.58-3.2-2-4.9-5-4.9a5,5,0,0,0-5.25,4.9Z"/><path class="cls-1" d="M556.35,161.31h-.09c-1.47,2.49-4,3.56-7,3.56-6.95,0-10.33-6-10.33-12.33,0-6.19,3.43-11.93,10.19-11.93A8.06,8.06,0,0,1,556,144h0V132.47h6.32v31.78h-6Zm-5.52-15.94c-4.14,0-5.57,3.56-5.57,7.35,0,3.6,1.65,7.39,5.57,7.39,4.18,0,5.43-3.65,5.43-7.44S554.92,145.37,550.83,145.37Z"/><path class="cls-1" d="M585.41,138.34h-9.53v-5.87h26v5.87h-9.53v25.91h-7Z"/><path class="cls-1" d="M604.68,132.47h23.77v5.87H611.67v6.81h15.4v5.43h-15.4v7.79H628.8v5.88H604.68Z"/><path class="cls-1" d="M631.74,132.47h13.71c8.23,0,14.42,5.16,14.42,15.71,0,9.21-4.72,16.07-14.42,16.07H631.74Zm7,25.9H645c4,0,7.92-2.49,7.92-9.52,0-6.41-2.23-10.51-9.17-10.51h-5Z"/><path class="cls-1" d="M679.85,154.28c.18,4,2.14,5.83,5.65,5.83,2.54,0,4.59-1.56,5-3h5.56c-1.78,5.43-5.56,7.75-10.77,7.75-7.26,0-11.75-5-11.75-12.11,0-6.9,4.76-12.15,11.75-12.15,7.83,0,11.62,6.59,11.17,13.67Zm10.28-4c-.58-3.2-2-4.9-5-4.9a5,5,0,0,0-5.25,4.9Z"/><path class="cls-1" d="M711.14,164.25h-7l-7.88-23h6.63L707.71,157h.09l4.85-15.72h6.28Z"/><path class="cls-1" d="M725,154.28c.18,4,2.14,5.83,5.65,5.83,2.54,0,4.59-1.56,5-3h5.56c-1.78,5.43-5.56,7.75-10.77,7.75-7.26,0-11.75-5-11.75-12.11,0-6.9,4.76-12.15,11.75-12.15,7.83,0,11.62,6.59,11.17,13.67Zm10.28-4c-.58-3.2-2-4.9-5-4.9a5,5,0,0,0-5.25,4.9Z"/><path class="cls-1" d="M744.43,141.23h6v3.21h.13a8.21,8.21,0,0,1,7-3.83c6.73,0,8.42,3.78,8.42,9.48v14.16H759.7v-13c0-3.78-1.12-5.65-4.05-5.65-3.43,0-4.9,1.91-4.9,6.58v12.07h-6.32Z"/><path class="cls-1" d="M777.94,141.23h4.63v4.23h-4.63v11.4c0,2.13.54,2.67,2.67,2.67a10,10,0,0,0,2-.18v4.94a24,24,0,0,1-3.69.22c-3.87,0-7.26-.89-7.26-5.47V145.46h-3.83v-4.23h3.83v-6.89h6.32Z"/><path class="cls-1" d="M29.65,27.32H0V.2H91.88V27.32H62.24V106H29.65Z"/><path class="cls-1" d="M96.94.2h89.2V27.32H129.55V40.51h56.59v25.2H129.55V78.9h56.6V106H96.94Z"/><path class="cls-1" d="M191.62.2h53.5C280.39.2,292.85,26.29,292.85,53c0,32.46-17.19,53.06-54.09,53.06H191.62Zm32.6,78.7H237c20.31,0,23.28-16.46,23.28-26.4,0-6.65-2.09-25.18-25.65-25.18H224.22Z"/><path class="cls-1" d="M339.7,65.24l-9.95-16.49-9.7,16.49H296.17L318.84,31.9,297,0H320.9l8.85,15.77L338.85,0h23.89L340.91,31.9l22.68,33.34Z"/><path class="cls-1" d="M402.42.66V65.79q0,11.49,4.34,19.09,6.44,11.48,21.69,11.47,18.29,0,24.87-12.41,3.54-6.73,3.54-18.15V.66h14.42V59.84q0,19.44-5.25,29.91-9.64,19.08-36.42,19.08T393.26,89.75Q388,79.28,388,59.84V.66Z"/><path class="cls-1" d="M569.69.66V13.22h-35.5V106H519.77V13.22H484.26V.66Z"/><path class="cls-1" d="M572.49,81.93q.59,6.46,3.3,9.9,5,6.24,17.27,6.24A25.92,25.92,0,0,0,606,95a10.31,10.31,0,0,0,5.56-9.64,8.25,8.25,0,0,0-4.44-7.54q-2.85-1.58-11.23-3.65l-10.42-2.59q-10-2.43-14.73-5.45-8.46-5.23-8.46-14.49a22,22,0,0,1,8-17.64q8-6.75,21.41-6.75,17.6,0,25.37,10.19a21.87,21.87,0,0,1,4.73,13.92H609.51a14.64,14.64,0,0,0-3.16-7.92q-4.56-5.07-15.79-5.07-7.48,0-11.34,2.79a8.67,8.67,0,0,0-3.86,7.36q0,5,5.07,8a30.88,30.88,0,0,0,8.62,3.15l8.7,2.08q14.18,3.36,19,6.52,7.53,5,7.53,15.57a23.58,23.58,0,0,1-7.88,17.72q-7.87,7.45-24,7.46-17.35,0-24.58-7.79a29.2,29.2,0,0,1-7.74-19.26Z"/><path class="cls-1" d="M651.18,29.21v51A22.06,22.06,0,0,0,653,89.83q3.35,6.89,12.5,6.88,13.14,0,17.89-12Q686,78.21,686,66.94V29.21h12.91V106H686.69l.14-11.34a26,26,0,0,1-6.12,7.39,26.63,26.63,0,0,1-17.6,6q-16.12,0-22-11Q638,91.26,638,81.43V29.21Z"/><path class="cls-1" d="M719.68.66h12.41V61.84L765.2,29.21h16.5L752.17,57.78,783.35,106H766.86l-24.17-39.1L732.09,77.2V106H719.68Z"/><path class="cls-1" d="M806.33,29.21v51a22.06,22.06,0,0,0,1.82,9.62q3.36,6.89,12.51,6.88,13.13,0,17.88-12,2.58-6.45,2.58-17.72V29.21H854V106h-12.2L842,94.7a25.87,25.87,0,0,1-6.12,7.39,26.61,26.61,0,0,1-17.6,6q-16.11,0-22-11-3.16-5.88-3.16-15.71V29.21Z"/><path class="cls-1" d="M874.05.3H886.6V38.54a28.32,28.32,0,0,1,23-11.34q14.4,0,23.37,9.87t9,29.08q0,18.22-8.86,30.27t-24.56,12.06a25.24,25.24,0,0,1-14.83-4.24,35.55,35.55,0,0,1-7.7-8V106H874.05Zm49.37,88.45q5.22-8.32,5.22-22,0-12.12-5.22-20.09t-15.37-8a21.48,21.48,0,0,0-15.51,6.53q-6.66,6.53-6.65,21.52,0,10.83,2.73,17.57,5.11,12.7,19.07,12.7Q918.21,97.07,923.42,88.75Z"/><path class="cls-1" d="M998,59.54q4.46-.57,6-3.72a11.34,11.34,0,0,0,.86-5q0-6.62-4.69-9.61t-13.42-3q-10.1,0-14.31,5.48-2.37,3-3.08,9h-12q.36-14.25,9.2-19.82A37.74,37.74,0,0,1,987,27.35q13.54,0,22,5.16t8.39,16.07V92.84a5.66,5.66,0,0,0,.82,3.23c.55.81,1.71,1.22,3.48,1.22.57,0,1.22,0,1.94-.11s1.48-.18,2.29-.32v9.53a34.64,34.64,0,0,1-4.59,1.08,33.92,33.92,0,0,1-4.3.22q-6.68,0-9.69-4.74a18.28,18.28,0,0,1-2.22-7.1,32.88,32.88,0,0,1-11.33,9,35.15,35.15,0,0,1-16.29,3.8q-10.68,0-17.46-6.49a21.51,21.51,0,0,1-6.78-16.22q0-10.68,6.67-16.55t17.5-7.24ZM970.81,94.42a15.19,15.19,0,0,0,9.69,3.22,29.52,29.52,0,0,0,13.2-3.15q10.75-5.22,10.76-17.11V67a22,22,0,0,1-6.09,2.52,52.26,52.26,0,0,1-7.3,1.44l-7.8,1q-7,.93-10.56,2.94-6,3.36-6,10.73A10.6,10.6,0,0,0,970.81,94.42Z"/></g></g></svg>