<?xml version="1.0" encoding="iso-8859-1"?>
<!-- Generator: Adobe Illustrator 18.1.1, SVG Export Plug-In . SVG Version: 6.00 Build 0)  -->
<svg version="1.1" id="_x32_" xmlns="http://www.w3.org/2000/svg" xmlns:xlink="http://www.w3.org/1999/xlink" x="0px" y="0px"
	 viewBox="0 0 512 512" style="enable-background:new 0 0 512 512;" xml:space="preserve">
<g>
	<g>
		<g>
			<polygon style="fill:#7FD8FF;" points="512,412.796 400.102,270.77 347.137,272.049 236.245,412.796 			"/>
			<polygon style="fill:#FFFFFF;" points="406.315,278.656 398.746,283.293 386.434,276.044 374.124,283.293 361.813,276.044 
				349.499,283.293 341.931,278.656 374.124,237.797 			"/>
		</g>
	</g>
	<g>
		<rect x="0" y="368.264" style="fill:#73C69E;" width="29.981" height="44.362"/>
		<rect x="10.708" y="407.403" style="fill:#668066;" width="8.566" height="5.393"/>
		<rect x="3.212" y="375.029" style="fill:#668066;" width="23.556" height="3.441"/>
		<rect x="3.212" y="383.594" style="fill:#668066;" width="23.556" height="3.441"/>
		<rect x="3.212" y="392.161" style="fill:#668066;" width="23.556" height="3.441"/>
		<rect x="3.212" y="400.725" style="fill:#668066;" width="23.556" height="3.441"/>
	</g>
	<g>
		<g>
			<rect x="256.516" y="98.832" style="fill:#E9638C;" width="3.714" height="46.667"/>
			<rect x="255.035" y="123.726" style="fill:#604C3F;" width="6.675" height="8.948"/>
			<rect x="255.035" y="108.814" style="fill:#604C3F;" width="6.675" height="8.948"/>
		</g>
		<polygon style="fill:#F1ABB3;" points="277.966,412.796 264.425,412.796 258.469,376.978 252.515,412.796 238.972,412.796 
			244.902,286.262 245.253,269.767 247.518,201.471 247.639,195.782 269.301,195.782 269.422,201.471 271.685,269.767 
			272.038,286.262 		"/>
		<polygon style="fill:#E099A5;" points="269.422,201.471 247.518,201.471 247.639,195.782 269.301,195.782 		"/>
		<polygon style="fill:#E099A5;" points="272.038,286.262 244.902,286.262 245.253,269.767 271.685,269.767 		"/>
		<rect x="252.314" y="143.398" style="fill:#F1ABB3;" width="12.473" height="25.355"/>
		<polygon style="fill:#604C3F;" points="239.046,245.81 239.046,260.41 242.268,281.886 274.477,281.886 277.698,260.41 
			277.698,245.81 		"/>
		<rect x="239.046" y="245.81" style="fill:#E9638C;" width="38.652" height="14.6"/>
		<polygon style="fill:#604C3F;" points="274.619,176.164 274.619,164.778 242.125,164.778 242.125,176.164 242.125,176.383 
			244.831,198.354 271.913,198.354 274.619,176.383 		"/>
		<rect x="242.125" y="164.778" style="fill:#E9638C;" width="32.494" height="11.386"/>
	</g>
	<g>
		
			<rect x="256.509" y="344.767" transform="matrix(1 0.0014 -0.0014 1 0.5193 -0.3596)" style="fill:#EDAC64;" width="12.332" height="68.021"/>
		<rect x="248.824" y="344.767" style="fill:#D89450;" width="12.331" height="68.021"/>
		<rect x="235.93" y="334.722" style="fill:#FFC87F;" width="24.13" height="78.066"/>
		<g>
			<rect x="240.266" y="342.121" style="fill:#E5A361;" width="2.566" height="2.878"/>
			<rect x="246.711" y="342.121" style="fill:#E5A361;" width="2.567" height="2.878"/>
			<rect x="253.157" y="342.121" style="fill:#E5A361;" width="2.566" height="2.878"/>
		</g>
		<g>
			<rect x="263.571" y="349.327" style="fill:#E5A361;" width="2.568" height="2.876"/>
		</g>
		<g>
			<rect x="263.571" y="359.318" style="fill:#E5A361;" width="2.568" height="2.876"/>
		</g>
		<g>
			<rect x="263.571" y="369.309" style="fill:#E5A361;" width="2.568" height="2.876"/>
		</g>
		<g>
			<rect x="263.571" y="379.3" style="fill:#E5A361;" width="2.568" height="2.879"/>
		</g>
		<g>
			<rect x="263.571" y="389.294" style="fill:#E5A361;" width="2.568" height="2.876"/>
		</g>
		<g>
			<rect x="263.571" y="399.285" style="fill:#E5A361;" width="2.568" height="2.876"/>
		</g>
		<g>
			<rect x="240.266" y="353.183" style="fill:#E5A361;" width="2.566" height="2.876"/>
			<rect x="246.711" y="353.183" style="fill:#E5A361;" width="2.567" height="2.876"/>
			<rect x="253.157" y="353.183" style="fill:#E5A361;" width="2.566" height="2.876"/>
		</g>
		<g>
			<rect x="240.266" y="364.243" style="fill:#E5A361;" width="2.566" height="2.876"/>
			<rect x="246.711" y="364.243" style="fill:#E5A361;" width="2.567" height="2.876"/>
			<rect x="253.157" y="364.243" style="fill:#E5A361;" width="2.566" height="2.876"/>
		</g>
		<g>
			<rect x="240.266" y="375.302" style="fill:#E5A361;" width="2.566" height="2.876"/>
			<rect x="246.711" y="375.302" style="fill:#E5A361;" width="2.567" height="2.876"/>
			<rect x="253.157" y="375.302" style="fill:#E5A361;" width="2.566" height="2.876"/>
		</g>
		<g>
			<rect x="240.266" y="397.421" style="fill:#E5A361;" width="2.566" height="2.875"/>
			<rect x="246.711" y="397.421" style="fill:#E5A361;" width="2.567" height="2.875"/>
			<rect x="253.157" y="397.421" style="fill:#E5A361;" width="2.566" height="2.875"/>
		</g>
		<g>
			<rect x="240.266" y="386.361" style="fill:#E5A361;" width="2.566" height="2.876"/>
			<rect x="246.711" y="386.361" style="fill:#E5A361;" width="2.567" height="2.876"/>
			<rect x="253.157" y="386.361" style="fill:#E5A361;" width="2.566" height="2.876"/>
		</g>
		<rect x="244.027" y="407.212" style="fill:#E5A361;" width="7.935" height="5.575"/>
	</g>
	<g>
		<rect x="440.528" y="384.076" style="fill:#EFBC8B;" width="33.162" height="28.719"/>
		<rect x="440.528" y="384.076" style="fill:#E5AD76;" width="9.222" height="28.719"/>
		<polygon style="fill:#FF8D8D;" points="446.33,412.796 416.236,412.796 416.236,331.471 446.33,339.768 		"/>
		<g>
			<rect x="420.676" y="404.976" style="fill:#E25959;" width="3.431" height="2.674"/>
			<rect x="420.676" y="396.792" style="fill:#E25959;" width="3.431" height="2.677"/>
			<rect x="420.676" y="388.609" style="fill:#E25959;" width="3.431" height="2.68"/>
			<rect x="420.676" y="380.425" style="fill:#E25959;" width="3.431" height="2.68"/>
			<rect x="420.676" y="372.241" style="fill:#E25959;" width="3.431" height="2.68"/>
			<rect x="420.676" y="364.061" style="fill:#E25959;" width="3.431" height="2.677"/>
			<rect x="420.676" y="354.786" style="fill:#E25959;" width="3.431" height="2.68"/>
			<rect x="420.676" y="346.605" style="fill:#E25959;" width="3.431" height="2.677"/>
			<rect x="420.676" y="339.547" style="fill:#E25959;" width="3.431" height="2.674"/>
			<rect x="428.997" y="405.559" style="fill:#E25959;" width="13.01" height="2.737"/>
			<rect x="428.997" y="395.517" style="fill:#E25959;" width="13.01" height="2.736"/>
			<rect x="428.997" y="385.475" style="fill:#E25959;" width="13.01" height="2.739"/>
			<rect x="428.997" y="375.435" style="fill:#E25959;" width="13.01" height="2.736"/>
			<rect x="428.997" y="365.391" style="fill:#E25959;" width="13.01" height="2.739"/>
			<rect x="428.997" y="356.869" style="fill:#E25959;" width="13.01" height="2.737"/>
			<rect x="428.997" y="346.827" style="fill:#E25959;" width="13.01" height="2.739"/>
			<g>
				<rect x="451.461" y="389.68" style="fill:#E8A467;" width="12.702" height="3.95"/>
				<rect x="466.768" y="389.68" style="fill:#E8A467;" width="5.211" height="3.95"/>
			</g>
			<g>
				<rect x="451.461" y="397.818" style="fill:#E8A467;" width="12.702" height="3.947"/>
				<rect x="466.768" y="397.818" style="fill:#E8A467;" width="5.211" height="3.947"/>
			</g>
		</g>
		<rect x="457.401" y="407.326" style="fill:#D38D54;" width="5.557" height="5.47"/>
	</g>
	<g>
		<g>
			<rect x="309.08" y="302.817" style="fill:#D6D6D6;" width="41.481" height="109.979"/>
			<rect x="326.118" y="302.817" style="fill:#B5B5B5;" width="9.256" height="109.55"/>
		</g>
		<rect x="325.562" y="297.373" style="fill:#868686;" width="8.516" height="114.994"/>
		<g>
			<g>
				<g>
					<rect x="336.891" y="310.674" style="fill:#B5B5B5;" width="10.349" height="3.802"/>
					<rect x="336.891" y="319.676" style="fill:#B5B5B5;" width="10.349" height="3.799"/>
					<rect x="336.891" y="328.678" style="fill:#B5B5B5;" width="10.349" height="3.799"/>
					<rect x="336.891" y="337.677" style="fill:#B5B5B5;" width="10.349" height="3.799"/>
					<rect x="336.891" y="346.676" style="fill:#B5B5B5;" width="10.349" height="3.805"/>
					<rect x="336.891" y="355.678" style="fill:#B5B5B5;" width="10.349" height="3.799"/>
					<rect x="336.891" y="364.677" style="fill:#B5B5B5;" width="10.349" height="3.805"/>
					<rect x="336.891" y="373.682" style="fill:#B5B5B5;" width="10.349" height="3.799"/>
					<rect x="336.891" y="382.681" style="fill:#B5B5B5;" width="10.349" height="3.799"/>
					<rect x="336.891" y="400.683" style="fill:#B5B5B5;" width="10.349" height="3.802"/>
					<rect x="336.891" y="391.684" style="fill:#B5B5B5;" width="10.349" height="3.799"/>
				</g>
			</g>
			<g>
				<g>
					<rect x="312.4" y="310.674" style="fill:#B5B5B5;" width="10.347" height="3.802"/>
					<rect x="312.4" y="319.676" style="fill:#B5B5B5;" width="10.347" height="3.799"/>
					<rect x="312.4" y="328.678" style="fill:#B5B5B5;" width="10.347" height="3.799"/>
					<rect x="312.4" y="337.677" style="fill:#B5B5B5;" width="10.347" height="3.799"/>
					<rect x="312.4" y="346.676" style="fill:#B5B5B5;" width="10.347" height="3.805"/>
					<rect x="312.4" y="355.678" style="fill:#B5B5B5;" width="10.347" height="3.799"/>
					<rect x="312.4" y="364.677" style="fill:#B5B5B5;" width="10.347" height="3.805"/>
					<rect x="312.4" y="373.682" style="fill:#B5B5B5;" width="10.347" height="3.799"/>
					<rect x="312.4" y="382.681" style="fill:#B5B5B5;" width="10.347" height="3.799"/>
					<rect x="312.4" y="400.683" style="fill:#B5B5B5;" width="10.347" height="3.802"/>
					<rect x="312.4" y="391.684" style="fill:#B5B5B5;" width="10.347" height="3.799"/>
				</g>
			</g>
		</g>
	</g>
	<g>
		<rect x="354.215" y="317.985" style="fill:#D6D6D6;" width="26.273" height="16.524"/>
		<polygon style="fill:#C4C4C4;" points="380.488,321.355 354.215,319.898 354.215,317.985 380.488,317.985 		"/>
		<rect x="350.956" y="323.327" style="fill:#27B9E0;" width="32.788" height="89.469"/>
		<g>
			<rect x="356.811" y="329.116" style="fill:#509BB5;" width="2.25" height="5.421"/>
			<rect x="363.088" y="329.116" style="fill:#509BB5;" width="2.249" height="5.421"/>
			<rect x="369.363" y="329.116" style="fill:#509BB5;" width="2.251" height="5.421"/>
			<rect x="375.64" y="329.116" style="fill:#509BB5;" width="2.249" height="5.421"/>
		</g>
		<g>
			<rect x="356.811" y="341.908" style="fill:#509BB5;" width="2.25" height="5.425"/>
			<rect x="363.088" y="341.908" style="fill:#509BB5;" width="2.249" height="5.425"/>
			<rect x="369.363" y="341.908" style="fill:#509BB5;" width="2.251" height="5.425"/>
			<rect x="375.64" y="341.908" style="fill:#509BB5;" width="2.249" height="5.425"/>
		</g>
		<g>
			<rect x="356.811" y="354.704" style="fill:#509BB5;" width="2.25" height="5.425"/>
			<rect x="363.088" y="354.704" style="fill:#509BB5;" width="2.249" height="5.425"/>
			<rect x="369.363" y="354.704" style="fill:#509BB5;" width="2.251" height="5.425"/>
			<rect x="375.64" y="354.704" style="fill:#509BB5;" width="2.249" height="5.425"/>
		</g>
		<g>
			<rect x="356.811" y="367.499" style="fill:#509BB5;" width="2.25" height="5.421"/>
			<rect x="363.088" y="367.499" style="fill:#509BB5;" width="2.249" height="5.421"/>
			<rect x="369.363" y="367.499" style="fill:#509BB5;" width="2.251" height="5.421"/>
			<rect x="375.64" y="367.499" style="fill:#509BB5;" width="2.249" height="5.421"/>
		</g>
		<g>
			<rect x="356.811" y="380.294" style="fill:#509BB5;" width="2.25" height="5.425"/>
			<rect x="363.088" y="380.294" style="fill:#509BB5;" width="2.249" height="5.425"/>
			<rect x="369.363" y="380.294" style="fill:#509BB5;" width="2.251" height="5.425"/>
			<rect x="375.64" y="380.294" style="fill:#509BB5;" width="2.249" height="5.425"/>
		</g>
		<g>
			<rect x="356.811" y="393.09" style="fill:#509BB5;" width="2.25" height="5.424"/>
			<rect x="363.088" y="393.09" style="fill:#509BB5;" width="2.249" height="5.424"/>
			<rect x="369.363" y="393.09" style="fill:#509BB5;" width="2.251" height="5.424"/>
			<rect x="375.64" y="393.09" style="fill:#509BB5;" width="2.249" height="5.424"/>
		</g>
		<rect x="350.956" y="315.692" style="fill:#27B9E0;" width="32.788" height="2.884"/>
		<rect x="364.749" y="405.419" style="fill:#509BB5;" width="5.204" height="7.376"/>
	</g>
	<g>
		<polygon style="fill:#E0B68C;" points="307.628,287.419 291.379,273.132 275.131,287.419 		"/>
		<rect x="269.818" y="284.793" style="fill:#73C69E;" width="43.122" height="101.034"/>
		<g>
			<g>
				<rect x="274.506" y="292.411" style="fill:#668066;" width="8.749" height="2.844"/>
				<rect x="287.004" y="292.411" style="fill:#668066;" width="8.749" height="2.844"/>
				<rect x="299.503" y="292.411" style="fill:#668066;" width="8.75" height="2.844"/>
			</g>
			<g>
				<rect x="274.506" y="301.206" style="fill:#668066;" width="8.749" height="2.844"/>
				<rect x="287.004" y="301.206" style="fill:#668066;" width="8.749" height="2.844"/>
				<rect x="299.503" y="301.206" style="fill:#668066;" width="8.75" height="2.844"/>
			</g>
			<g>
				<rect x="274.506" y="310.003" style="fill:#668066;" width="8.749" height="2.842"/>
				<rect x="287.004" y="310.003" style="fill:#668066;" width="8.749" height="2.842"/>
				<rect x="299.503" y="310.003" style="fill:#668066;" width="8.75" height="2.842"/>
			</g>
			<g>
				<rect x="274.506" y="318.801" style="fill:#668066;" width="8.749" height="2.842"/>
				<rect x="287.004" y="318.801" style="fill:#668066;" width="8.749" height="2.842"/>
				<rect x="299.503" y="318.801" style="fill:#668066;" width="8.75" height="2.842"/>
			</g>
			<g>
				<rect x="274.506" y="327.595" style="fill:#668066;" width="8.749" height="2.842"/>
				<rect x="287.004" y="327.595" style="fill:#668066;" width="8.749" height="2.842"/>
				<rect x="299.503" y="327.595" style="fill:#668066;" width="8.75" height="2.842"/>
			</g>
			<g>
				<rect x="274.506" y="336.393" style="fill:#668066;" width="8.749" height="2.842"/>
				<rect x="287.004" y="336.393" style="fill:#668066;" width="8.749" height="2.842"/>
				<rect x="299.503" y="336.393" style="fill:#668066;" width="8.75" height="2.842"/>
			</g>
			<g>
				<rect x="274.506" y="345.187" style="fill:#668066;" width="8.749" height="2.842"/>
				<rect x="287.004" y="345.187" style="fill:#668066;" width="8.749" height="2.842"/>
				<rect x="299.503" y="345.187" style="fill:#668066;" width="8.75" height="2.842"/>
			</g>
			<g>
				<rect x="274.506" y="353.982" style="fill:#668066;" width="8.749" height="2.844"/>
				<rect x="287.004" y="353.982" style="fill:#668066;" width="8.749" height="2.844"/>
				<rect x="299.503" y="353.982" style="fill:#668066;" width="8.75" height="2.844"/>
			</g>
			<g>
				<rect x="274.506" y="362.779" style="fill:#668066;" width="8.749" height="2.842"/>
				<rect x="287.004" y="362.779" style="fill:#668066;" width="8.749" height="2.842"/>
				<rect x="299.503" y="362.779" style="fill:#668066;" width="8.75" height="2.842"/>
			</g>
			<g>
				<rect x="274.506" y="371.574" style="fill:#668066;" width="8.749" height="2.844"/>
				<rect x="287.004" y="371.574" style="fill:#668066;" width="8.749" height="2.844"/>
				<rect x="299.503" y="371.574" style="fill:#668066;" width="8.75" height="2.844"/>
			</g>
		</g>
		<g>
			<rect x="264.819" y="381.013" style="fill:#E0B68C;" width="53.12" height="31.782"/>
			<rect x="271.693" y="388.231" style="fill:#CC9C75;" width="39.372" height="3.935"/>
			<rect x="271.693" y="399.512" style="fill:#CC9C75;" width="39.372" height="13.284"/>
			<rect x="277.742" y="403.592" style="fill:#BA8B67;" width="27.273" height="9.203"/>
		</g>
	</g>
	<g>
		<rect x="129.061" y="219.034" style="fill:#E0E0E0;" width="5.133" height="18.416"/>
		<rect x="122.872" y="235.234" style="fill:#C4C4C4;" width="17.511" height="7.2"/>
		<rect x="118.713" y="241.389" style="fill:#E0E0E0;" width="25.832" height="7.198"/>
		<rect x="115.21" y="248.643" style="fill:#C4C4C4;" width="32.837" height="164.153"/>
		<g>
			<rect x="121.295" y="256.614" style="fill:#A3A3A3;" width="3.099" height="156.182"/>
			<rect x="130.079" y="256.614" style="fill:#A3A3A3;" width="3.1" height="156.182"/>
			<rect x="138.862" y="256.614" style="fill:#A3A3A3;" width="3.102" height="156.182"/>
		</g>
	</g>
	<g>
		<g>
			<rect x="389.7" y="348.77" style="fill:#63C3E5;" width="21.76" height="64.025"/>
			<rect x="389.071" y="348.77" style="fill:#539DE0;" width="2.047" height="64.025"/>
			<rect x="409.882" y="347.438" style="fill:#A4D1EA;" width="5.991" height="65.358"/>
			<rect x="384.335" y="347.438" style="fill:#A4D1EA;" width="5.991" height="65.358"/>
		</g>
		<rect x="392.891" y="353.493" style="fill:#539DE0;" width="14.719" height="2.029"/>
		<rect x="392.891" y="359.574" style="fill:#539DE0;" width="14.719" height="2.026"/>
		<rect x="392.891" y="365.655" style="fill:#539DE0;" width="14.719" height="2.026"/>
		<rect x="392.891" y="371.736" style="fill:#539DE0;" width="14.719" height="2.026"/>
		<rect x="392.891" y="377.814" style="fill:#539DE0;" width="14.719" height="2.029"/>
		<rect x="392.891" y="383.895" style="fill:#539DE0;" width="14.719" height="2.026"/>
		<rect x="392.891" y="389.976" style="fill:#539DE0;" width="14.719" height="2.029"/>
		<rect x="392.891" y="396.056" style="fill:#539DE0;" width="14.719" height="2.026"/>
		<rect x="392.891" y="402.137" style="fill:#539DE0;" width="14.719" height="2.026"/>
	</g>
	<g>
		<g>
			<rect x="84.654" y="302.098" style="fill:#D9C0CD;" width="25.405" height="110.698"/>
			<rect x="83.918" y="302.098" style="fill:#BC8C99;" width="2.391" height="110.698"/>
			<rect x="108.216" y="300.433" style="fill:#D9E9F6;" width="6.994" height="112.363"/>
			<rect x="78.391" y="300.433" style="fill:#D9E9F6;" width="6.994" height="112.363"/>
		</g>
		<rect x="88.379" y="308.168" style="fill:#BC8C99;" width="17.184" height="2.538"/>
		<rect x="88.379" y="315.777" style="fill:#BC8C99;" width="17.184" height="2.535"/>
		<rect x="88.379" y="323.384" style="fill:#BC8C99;" width="17.184" height="2.535"/>
		<rect x="88.379" y="330.991" style="fill:#BC8C99;" width="17.184" height="2.535"/>
		<rect x="88.379" y="338.598" style="fill:#BC8C99;" width="17.184" height="2.538"/>
		<rect x="88.379" y="346.205" style="fill:#BC8C99;" width="17.184" height="2.538"/>
		<rect x="88.379" y="353.814" style="fill:#BC8C99;" width="17.184" height="2.535"/>
		<rect x="88.379" y="361.421" style="fill:#BC8C99;" width="17.184" height="2.537"/>
		<rect x="88.379" y="369.028" style="fill:#BC8C99;" width="17.184" height="2.537"/>
		<rect x="88.379" y="376.635" style="fill:#BC8C99;" width="17.184" height="2.535"/>
		<rect x="88.379" y="384.244" style="fill:#BC8C99;" width="17.184" height="2.535"/>
		<rect x="88.379" y="391.851" style="fill:#BC8C99;" width="17.184" height="2.535"/>
		<rect x="88.379" y="399.461" style="fill:#BC8C99;" width="17.184" height="2.535"/>
	</g>
	<g>
		<g>
			<g>
				<rect x="183.488" y="305.536" style="fill:#26A8F2;" width="54.294" height="107.259"/>
				<polygon style="fill:#4289D0;" points="196.038,305.536 196.038,412.796 211.901,412.796 227.761,412.796 227.761,305.536 				
					"/>
			</g>
			<polygon style="fill:#28BBFF;" points="210.636,289.073 194.775,299.336 194.775,412.796 210.636,412.796 226.499,412.796 
				226.499,299.336 			"/>
			<rect x="199.583" y="313.354" style="fill:#5B9EE9;" width="22.109" height="4.123"/>
			<rect x="199.583" y="303.17" style="fill:#5B9EE9;" width="22.109" height="4.123"/>
			<rect x="199.583" y="323.535" style="fill:#5B9EE9;" width="22.109" height="4.126"/>
			<rect x="199.583" y="333.719" style="fill:#5B9EE9;" width="22.109" height="4.126"/>
			<rect x="199.583" y="343.903" style="fill:#5B9EE9;" width="22.109" height="4.126"/>
			<rect x="199.583" y="354.084" style="fill:#5B9EE9;" width="22.109" height="4.129"/>
			<rect x="199.583" y="364.268" style="fill:#5B9EE9;" width="22.109" height="4.126"/>
			<rect x="199.583" y="374.452" style="fill:#5B9EE9;" width="22.109" height="4.126"/>
			<rect x="199.583" y="384.636" style="fill:#5B9EE9;" width="22.109" height="4.126"/>
			<rect x="199.583" y="394.82" style="fill:#5B9EE9;" width="22.109" height="4.123"/>
			<g>
				<g>
					<rect x="230.455" y="320.065" style="fill:#278FDB;" width="3.357" height="3.342"/>
					<rect x="230.455" y="309.881" style="fill:#278FDB;" width="3.357" height="3.342"/>
					<rect x="230.455" y="330.246" style="fill:#278FDB;" width="3.357" height="3.345"/>
					<rect x="230.455" y="340.431" style="fill:#278FDB;" width="3.357" height="3.342"/>
					<rect x="230.455" y="350.615" style="fill:#278FDB;" width="3.357" height="3.339"/>
					<rect x="230.455" y="360.796" style="fill:#278FDB;" width="3.357" height="3.345"/>
					<rect x="230.455" y="370.98" style="fill:#278FDB;" width="3.357" height="3.342"/>
					<rect x="230.455" y="381.164" style="fill:#278FDB;" width="3.357" height="3.342"/>
					<rect x="230.455" y="391.348" style="fill:#278FDB;" width="3.357" height="3.342"/>
					<rect x="230.455" y="401.532" style="fill:#278FDB;" width="3.357" height="3.342"/>
				</g>
				<g>
					<rect x="187.461" y="320.065" style="fill:#278FDB;" width="3.357" height="3.342"/>
					<rect x="187.461" y="309.881" style="fill:#278FDB;" width="3.357" height="3.342"/>
					<rect x="187.461" y="330.246" style="fill:#278FDB;" width="3.357" height="3.345"/>
					<rect x="187.461" y="340.431" style="fill:#278FDB;" width="3.357" height="3.342"/>
					<rect x="187.461" y="350.615" style="fill:#278FDB;" width="3.357" height="3.339"/>
					<rect x="187.461" y="360.796" style="fill:#278FDB;" width="3.357" height="3.345"/>
					<rect x="187.461" y="370.98" style="fill:#278FDB;" width="3.357" height="3.342"/>
					<rect x="187.461" y="381.164" style="fill:#278FDB;" width="3.357" height="3.342"/>
					<rect x="187.461" y="391.348" style="fill:#278FDB;" width="3.357" height="3.342"/>
					<rect x="187.461" y="401.532" style="fill:#278FDB;" width="3.357" height="3.342"/>
				</g>
			</g>
		</g>
		<rect x="204.004" y="405.22" style="fill:#5B9EE9;" width="13.264" height="7.576"/>
	</g>
	<g>
		<g>
			<rect x="145.266" y="328.417" style="fill:#826759;" width="4.518" height="6.951"/>
			<rect x="145.266" y="340.076" style="fill:#826759;" width="4.518" height="6.95"/>
			<rect x="145.266" y="351.737" style="fill:#826759;" width="4.518" height="6.95"/>
			<rect x="145.266" y="363.396" style="fill:#826759;" width="4.518" height="6.951"/>
			<rect x="145.266" y="375.058" style="fill:#826759;" width="4.518" height="6.948"/>
			<rect x="145.266" y="386.716" style="fill:#826759;" width="4.518" height="6.95"/>
			<rect x="145.266" y="398.375" style="fill:#826759;" width="4.518" height="6.948"/>
		</g>
		<rect x="148.047" y="320.781" style="fill:#AAD1E1;" width="35.441" height="91.841"/>
		<g>
			<rect x="148.047" y="410.364" style="fill:#826759;" width="35.441" height="2.432"/>
		</g>
		<g>
			<g>
				<g>
					<rect x="158.383" y="335.552" style="fill:#509BB5;" width="6.6" height="4.402"/>
					<rect x="166.554" y="335.552" style="fill:#509BB5;" width="6.598" height="4.402"/>
				</g>
				<g>
					<rect x="158.383" y="347.287" style="fill:#509BB5;" width="6.6" height="4.399"/>
					<rect x="166.554" y="347.287" style="fill:#509BB5;" width="6.598" height="4.399"/>
				</g>
				<g>
					<rect x="158.383" y="359.02" style="fill:#509BB5;" width="6.6" height="4.399"/>
					<rect x="166.554" y="359.02" style="fill:#509BB5;" width="6.598" height="4.399"/>
				</g>
				<g>
					<rect x="158.383" y="370.753" style="fill:#509BB5;" width="6.6" height="4.396"/>
					<rect x="166.554" y="370.753" style="fill:#509BB5;" width="6.598" height="4.396"/>
				</g>
				<g>
					<rect x="158.383" y="382.486" style="fill:#509BB5;" width="6.6" height="4.399"/>
					<rect x="166.554" y="382.486" style="fill:#509BB5;" width="6.598" height="4.399"/>
				</g>
			</g>
			<g>
				<rect x="158.383" y="394.215" style="fill:#509BB5;" width="6.6" height="4.402"/>
				<rect x="166.554" y="394.215" style="fill:#509BB5;" width="6.598" height="4.402"/>
			</g>
		</g>
	</g>
	<g>
		<rect x="29.721" y="262.107" style="fill:#FFD29F;" width="48.241" height="150.792"/>
		<g>
			<rect x="43.538" y="404.774" style="fill:#D89156;" width="20.608" height="8.394"/>
			<rect x="47.682" y="404.774" style="fill:#E8A467;" width="16.464" height="8.394"/>
		</g>
		<g>
			<g>
				<rect x="33.867" y="391.891" style="fill:#E8A467;" width="6.636" height="4.157"/>
				<rect x="44.972" y="391.891" style="fill:#E8A467;" width="6.636" height="4.157"/>
				<rect x="56.075" y="391.891" style="fill:#E8A467;" width="6.636" height="4.157"/>
				<rect x="67.181" y="391.891" style="fill:#E8A467;" width="6.635" height="4.157"/>
			</g>
			<rect x="29.721" y="394.21" style="fill:#B28562;" width="48.241" height="4.248"/>
		</g>
		<g>
			<g>
				<rect x="33.867" y="380.78" style="fill:#E8A467;" width="6.636" height="4.157"/>
				<rect x="44.972" y="380.78" style="fill:#E8A467;" width="6.636" height="4.157"/>
				<rect x="56.075" y="380.78" style="fill:#E8A467;" width="6.636" height="4.157"/>
				<rect x="67.181" y="380.78" style="fill:#E8A467;" width="6.635" height="4.157"/>
			</g>
			<rect x="29.721" y="383.099" style="fill:#B28562;" width="48.241" height="4.248"/>
		</g>
		<g>
			<g>
				<rect x="33.867" y="369.673" style="fill:#E8A467;" width="6.636" height="4.155"/>
				<rect x="44.972" y="369.673" style="fill:#E8A467;" width="6.636" height="4.155"/>
				<rect x="56.075" y="369.673" style="fill:#E8A467;" width="6.636" height="4.155"/>
				<rect x="67.181" y="369.673" style="fill:#E8A467;" width="6.635" height="4.155"/>
			</g>
			<rect x="29.721" y="371.992" style="fill:#B28562;" width="48.241" height="4.248"/>
		</g>
		<g>
			<g>
				<rect x="33.867" y="358.565" style="fill:#E8A467;" width="6.636" height="4.154"/>
				<rect x="44.972" y="358.565" style="fill:#E8A467;" width="6.636" height="4.154"/>
				<rect x="56.075" y="358.565" style="fill:#E8A467;" width="6.636" height="4.154"/>
				<rect x="67.181" y="358.565" style="fill:#E8A467;" width="6.635" height="4.154"/>
			</g>
			<rect x="29.721" y="360.884" style="fill:#B28562;" width="48.241" height="4.245"/>
		</g>
		<g>
			<g>
				<rect x="33.867" y="347.455" style="fill:#E8A467;" width="6.636" height="4.157"/>
				<rect x="44.972" y="347.455" style="fill:#E8A467;" width="6.636" height="4.157"/>
				<rect x="56.075" y="347.455" style="fill:#E8A467;" width="6.636" height="4.157"/>
				<rect x="67.181" y="347.455" style="fill:#E8A467;" width="6.635" height="4.157"/>
			</g>
			<rect x="29.721" y="349.774" style="fill:#B28562;" width="48.241" height="4.248"/>
		</g>
		<g>
			<g>
				<rect x="33.867" y="336.347" style="fill:#E8A467;" width="6.636" height="4.154"/>
				<rect x="44.972" y="336.347" style="fill:#E8A467;" width="6.636" height="4.154"/>
				<rect x="56.075" y="336.347" style="fill:#E8A467;" width="6.636" height="4.154"/>
				<rect x="67.181" y="336.347" style="fill:#E8A467;" width="6.635" height="4.154"/>
			</g>
			<rect x="29.721" y="338.663" style="fill:#B28562;" width="48.241" height="4.248"/>
		</g>
		<g>
			<g>
				<rect x="33.867" y="325.237" style="fill:#E8A467;" width="6.636" height="4.157"/>
				<rect x="44.972" y="325.237" style="fill:#E8A467;" width="6.636" height="4.157"/>
				<rect x="56.075" y="325.237" style="fill:#E8A467;" width="6.636" height="4.157"/>
				<rect x="67.181" y="325.237" style="fill:#E8A467;" width="6.635" height="4.157"/>
			</g>
			<rect x="29.721" y="327.555" style="fill:#B28562;" width="48.241" height="4.248"/>
		</g>
		<g>
			<g>
				<rect x="33.867" y="314.129" style="fill:#E8A467;" width="6.636" height="4.154"/>
				<rect x="44.972" y="314.129" style="fill:#E8A467;" width="6.636" height="4.154"/>
				<rect x="56.075" y="314.129" style="fill:#E8A467;" width="6.636" height="4.154"/>
				<rect x="67.181" y="314.129" style="fill:#E8A467;" width="6.635" height="4.154"/>
			</g>
			<rect x="29.721" y="316.448" style="fill:#B28562;" width="48.241" height="4.245"/>
		</g>
		<g>
			<g>
				<rect x="33.867" y="303.019" style="fill:#E8A467;" width="6.636" height="4.157"/>
				<rect x="44.972" y="303.019" style="fill:#E8A467;" width="6.636" height="4.157"/>
				<rect x="56.075" y="303.019" style="fill:#E8A467;" width="6.636" height="4.157"/>
				<rect x="67.181" y="303.019" style="fill:#E8A467;" width="6.635" height="4.157"/>
			</g>
			<rect x="29.721" y="305.338" style="fill:#B28562;" width="48.241" height="4.248"/>
		</g>
		<g>
			<g>
				<rect x="33.867" y="291.908" style="fill:#E8A467;" width="6.636" height="4.157"/>
				<rect x="44.972" y="291.908" style="fill:#E8A467;" width="6.636" height="4.157"/>
				<rect x="56.075" y="291.908" style="fill:#E8A467;" width="6.636" height="4.157"/>
				<rect x="67.181" y="291.908" style="fill:#E8A467;" width="6.635" height="4.157"/>
			</g>
			<rect x="29.721" y="294.23" style="fill:#B28562;" width="48.241" height="4.248"/>
		</g>
		<g>
			<g>
				<rect x="33.867" y="280.801" style="fill:#E8A467;" width="6.636" height="4.157"/>
				<rect x="44.972" y="280.801" style="fill:#E8A467;" width="6.636" height="4.157"/>
				<rect x="56.075" y="280.801" style="fill:#E8A467;" width="6.636" height="4.157"/>
				<rect x="67.181" y="280.801" style="fill:#E8A467;" width="6.635" height="4.157"/>
			</g>
			<rect x="29.721" y="283.119" style="fill:#B28562;" width="48.241" height="4.248"/>
		</g>
		<g>
			<g>
				<rect x="33.867" y="269.69" style="fill:#E8A467;" width="6.636" height="4.157"/>
				<rect x="44.972" y="269.69" style="fill:#E8A467;" width="6.636" height="4.157"/>
				<rect x="56.075" y="269.69" style="fill:#E8A467;" width="6.636" height="4.157"/>
				<rect x="67.181" y="269.69" style="fill:#E8A467;" width="6.635" height="4.157"/>
			</g>
			<rect x="29.721" y="272.009" style="fill:#B28562;" width="48.241" height="4.248"/>
		</g>
	</g>
</g>
</svg>
