<svg xmlns="http://www.w3.org/2000/svg" viewBox="0 0 512 314.34"><defs><style>.cls-1{fill:#7fd8ff;}.cls-2{fill:#fff;}.cls-3{fill:#73c69e;}.cls-4{fill:#668066;}.cls-5{fill:#e9638c;}.cls-6{fill:#604c3f;}.cls-7{fill:#f1abb3;}.cls-8{fill:#e099a5;}.cls-9{fill:#edac64;}.cls-10{fill:#d89450;}.cls-11{fill:#ffc87f;}.cls-12{fill:#e5a361;}.cls-13{fill:#efbc8b;}.cls-14{fill:#e5ad76;}.cls-15{fill:#ff8d8d;}.cls-16{fill:#e25959;}.cls-17{fill:#e8a467;}.cls-18{fill:#d38d54;}.cls-19{fill:#d6d6d6;}.cls-20{fill:#b5b5b5;}.cls-21{fill:#868686;}.cls-22{fill:#c4c4c4;}.cls-23{fill:#27b9e0;}.cls-24{fill:#509bb5;}.cls-25{fill:#e0b68c;}.cls-26{fill:#cc9c75;}.cls-27{fill:#ba8b67;}.cls-28{fill:#e0e0e0;}.cls-29{fill:#a3a3a3;}.cls-30{fill:#63c3e5;}.cls-31{fill:#539de0;}.cls-32{fill:#a4d1ea;}.cls-33{fill:#d9c0cd;}.cls-34{fill:#bc8c99;}.cls-35{fill:#d9e9f6;}.cls-36{fill:#26a8f2;}.cls-37{fill:#4289d0;}.cls-38{fill:#28bbff;}.cls-39{fill:#5b9ee9;}.cls-40{fill:#278fdb;}.cls-41{fill:#826759;}.cls-42{fill:#aad1e1;}.cls-43{fill:#ffd29f;}.cls-44{fill:#d89156;}.cls-45{fill:#b28562;}</style></defs><g id="レイヤー_2" data-name="レイヤー 2"><g id="_2" data-name="2"><polygon class="cls-1" points="512 313.96 400.1 171.94 347.14 173.22 236.25 313.96 512 313.96"/><polygon class="cls-2" points="406.31 179.82 398.75 184.46 386.43 177.21 374.12 184.46 361.81 177.21 349.5 184.46 341.93 179.82 374.12 138.97 406.31 179.82"/><rect class="cls-3" y="269.43" width="29.98" height="44.36"/><rect class="cls-4" x="10.71" y="308.57" width="8.57" height="5.39"/><rect class="cls-4" x="3.21" y="276.2" width="23.56" height="3.44"/><rect class="cls-4" x="3.21" y="284.76" width="23.56" height="3.44"/><rect class="cls-4" x="3.21" y="293.33" width="23.56" height="3.44"/><rect class="cls-4" x="3.21" y="301.89" width="23.56" height="3.44"/><rect class="cls-5" x="256.52" width="3.71" height="46.67"/><rect class="cls-6" x="255.04" y="24.89" width="6.67" height="8.95"/><rect class="cls-6" x="255.04" y="9.98" width="6.67" height="8.95"/><polygon class="cls-7" points="277.97 313.96 264.43 313.96 258.47 278.15 252.51 313.96 238.97 313.96 244.9 187.43 245.25 170.94 247.52 102.64 247.64 96.95 269.3 96.95 269.42 102.64 271.69 170.94 272.04 187.43 277.97 313.96"/><polygon class="cls-8" points="269.42 102.64 247.52 102.64 247.64 96.95 269.3 96.95 269.42 102.64"/><polygon class="cls-8" points="272.04 187.43 244.9 187.43 245.25 170.94 271.69 170.94 272.04 187.43"/><rect class="cls-7" x="252.31" y="44.57" width="12.47" height="25.35"/><polygon class="cls-6" points="239.05 146.98 239.05 161.58 242.27 183.05 274.48 183.05 277.7 161.58 277.7 146.98 239.05 146.98"/><rect class="cls-5" x="239.05" y="146.98" width="38.65" height="14.6"/><polygon class="cls-6" points="274.62 77.33 274.62 65.95 242.13 65.95 242.13 77.33 242.13 77.55 244.83 99.52 271.91 99.52 274.62 77.55 274.62 77.33"/><rect class="cls-5" x="242.13" y="65.95" width="32.49" height="11.39"/><rect class="cls-9" x="228.65" y="273.79" width="68.02" height="12.33" transform="matrix(0, -1, 1, 0, -17.66, 542.23)"/><rect class="cls-10" x="248.82" y="245.93" width="12.33" height="68.02"/><rect class="cls-11" x="235.93" y="235.89" width="24.13" height="78.07"/><rect class="cls-12" x="240.27" y="243.29" width="2.57" height="2.88"/><rect class="cls-12" x="246.71" y="243.29" width="2.57" height="2.88"/><rect class="cls-12" x="253.16" y="243.29" width="2.57" height="2.88"/><rect class="cls-12" x="263.57" y="250.49" width="2.57" height="2.88"/><rect class="cls-12" x="263.57" y="260.49" width="2.57" height="2.88"/><rect class="cls-12" x="263.57" y="270.48" width="2.57" height="2.88"/><rect class="cls-12" x="263.57" y="280.47" width="2.57" height="2.88"/><rect class="cls-12" x="263.57" y="290.46" width="2.57" height="2.88"/><rect class="cls-12" x="263.57" y="300.45" width="2.57" height="2.88"/><rect class="cls-12" x="240.27" y="254.35" width="2.57" height="2.88"/><rect class="cls-12" x="246.71" y="254.35" width="2.57" height="2.88"/><rect class="cls-12" x="253.16" y="254.35" width="2.57" height="2.88"/><rect class="cls-12" x="240.27" y="265.41" width="2.57" height="2.88"/><rect class="cls-12" x="246.71" y="265.41" width="2.57" height="2.88"/><rect class="cls-12" x="253.16" y="265.41" width="2.57" height="2.88"/><rect class="cls-12" x="240.27" y="276.47" width="2.57" height="2.88"/><rect class="cls-12" x="246.71" y="276.47" width="2.57" height="2.88"/><rect class="cls-12" x="253.16" y="276.47" width="2.57" height="2.88"/><rect class="cls-12" x="240.27" y="298.59" width="2.57" height="2.88"/><rect class="cls-12" x="246.71" y="298.59" width="2.57" height="2.88"/><rect class="cls-12" x="253.16" y="298.59" width="2.57" height="2.88"/><rect class="cls-12" x="240.27" y="287.53" width="2.57" height="2.88"/><rect class="cls-12" x="246.71" y="287.53" width="2.57" height="2.88"/><rect class="cls-12" x="253.16" y="287.53" width="2.57" height="2.88"/><rect class="cls-12" x="244.03" y="308.38" width="7.93" height="5.58"/><rect class="cls-13" x="440.53" y="285.24" width="33.16" height="28.72"/><rect class="cls-14" x="440.53" y="285.24" width="9.22" height="28.72"/><polygon class="cls-15" points="446.33 313.96 416.24 313.96 416.24 232.64 446.33 240.94 446.33 313.96"/><rect class="cls-16" x="420.68" y="306.14" width="3.43" height="2.67"/><rect class="cls-16" x="420.68" y="297.96" width="3.43" height="2.68"/><rect class="cls-16" x="420.68" y="289.78" width="3.43" height="2.68"/><rect class="cls-16" x="420.68" y="281.59" width="3.43" height="2.68"/><rect class="cls-16" x="420.68" y="273.41" width="3.43" height="2.68"/><rect class="cls-16" x="420.68" y="265.23" width="3.43" height="2.68"/><rect class="cls-16" x="420.68" y="255.95" width="3.43" height="2.68"/><rect class="cls-16" x="420.68" y="247.77" width="3.43" height="2.68"/><rect class="cls-16" x="420.68" y="240.71" width="3.43" height="2.67"/><rect class="cls-16" x="429" y="306.73" width="13.01" height="2.74"/><rect class="cls-16" x="429" y="296.68" width="13.01" height="2.74"/><rect class="cls-16" x="429" y="286.64" width="13.01" height="2.74"/><rect class="cls-16" x="429" y="276.6" width="13.01" height="2.74"/><rect class="cls-16" x="429" y="266.56" width="13.01" height="2.74"/><rect class="cls-16" x="429" y="258.04" width="13.01" height="2.74"/><rect class="cls-16" x="429" y="247.99" width="13.01" height="2.74"/><rect class="cls-17" x="451.46" y="290.85" width="12.7" height="3.95"/><rect class="cls-17" x="466.77" y="290.85" width="5.21" height="3.95"/><rect class="cls-17" x="451.46" y="298.99" width="12.7" height="3.95"/><rect class="cls-17" x="466.77" y="298.99" width="5.21" height="3.95"/><rect class="cls-18" x="457.4" y="308.49" width="5.56" height="5.47"/><rect class="cls-19" x="309.08" y="203.98" width="41.48" height="109.98"/><rect class="cls-20" x="326.12" y="203.98" width="9.26" height="109.55"/><rect class="cls-21" x="325.56" y="198.54" width="8.52" height="114.99"/><rect class="cls-20" x="336.89" y="211.84" width="10.35" height="3.8"/><rect class="cls-20" x="336.89" y="220.84" width="10.35" height="3.8"/><rect class="cls-20" x="336.89" y="229.85" width="10.35" height="3.8"/><rect class="cls-20" x="336.89" y="238.85" width="10.35" height="3.8"/><rect class="cls-20" x="336.89" y="247.84" width="10.35" height="3.8"/><rect class="cls-20" x="336.89" y="256.85" width="10.35" height="3.8"/><rect class="cls-20" x="336.89" y="265.85" width="10.35" height="3.8"/><rect class="cls-20" x="336.89" y="274.85" width="10.35" height="3.8"/><rect class="cls-20" x="336.89" y="283.85" width="10.35" height="3.8"/><rect class="cls-20" x="336.89" y="301.85" width="10.35" height="3.8"/><rect class="cls-20" x="336.89" y="292.85" width="10.35" height="3.8"/><rect class="cls-20" x="312.4" y="211.84" width="10.35" height="3.8"/><rect class="cls-20" x="312.4" y="220.84" width="10.35" height="3.8"/><rect class="cls-20" x="312.4" y="229.85" width="10.35" height="3.8"/><rect class="cls-20" x="312.4" y="238.85" width="10.35" height="3.8"/><rect class="cls-20" x="312.4" y="247.84" width="10.35" height="3.8"/><rect class="cls-20" x="312.4" y="256.85" width="10.35" height="3.8"/><rect class="cls-20" x="312.4" y="265.85" width="10.35" height="3.8"/><rect class="cls-20" x="312.4" y="274.85" width="10.35" height="3.8"/><rect class="cls-20" x="312.4" y="283.85" width="10.35" height="3.8"/><rect class="cls-20" x="312.4" y="301.85" width="10.35" height="3.8"/><rect class="cls-20" x="312.4" y="292.85" width="10.35" height="3.8"/><rect class="cls-19" x="354.21" y="219.15" width="26.27" height="16.52"/><polygon class="cls-22" points="380.49 222.52 354.21 221.07 354.21 219.15 380.49 219.15 380.49 222.52"/><rect class="cls-23" x="350.96" y="224.49" width="32.79" height="89.47"/><rect class="cls-24" x="356.81" y="230.28" width="2.25" height="5.42"/><rect class="cls-24" x="363.09" y="230.28" width="2.25" height="5.42"/><rect class="cls-24" x="369.36" y="230.28" width="2.25" height="5.42"/><rect class="cls-24" x="375.64" y="230.28" width="2.25" height="5.42"/><rect class="cls-24" x="356.81" y="243.08" width="2.25" height="5.42"/><rect class="cls-24" x="363.09" y="243.08" width="2.25" height="5.42"/><rect class="cls-24" x="369.36" y="243.08" width="2.25" height="5.42"/><rect class="cls-24" x="375.64" y="243.08" width="2.25" height="5.42"/><rect class="cls-24" x="356.81" y="255.87" width="2.25" height="5.42"/><rect class="cls-24" x="363.09" y="255.87" width="2.25" height="5.42"/><rect class="cls-24" x="369.36" y="255.87" width="2.25" height="5.42"/><rect class="cls-24" x="375.64" y="255.87" width="2.25" height="5.42"/><rect class="cls-24" x="356.81" y="268.67" width="2.25" height="5.42"/><rect class="cls-24" x="363.09" y="268.67" width="2.25" height="5.42"/><rect class="cls-24" x="369.36" y="268.67" width="2.25" height="5.42"/><rect class="cls-24" x="375.64" y="268.67" width="2.25" height="5.42"/><rect class="cls-24" x="356.81" y="281.46" width="2.25" height="5.42"/><rect class="cls-24" x="363.09" y="281.46" width="2.25" height="5.42"/><rect class="cls-24" x="369.36" y="281.46" width="2.25" height="5.42"/><rect class="cls-24" x="375.64" y="281.46" width="2.25" height="5.42"/><rect class="cls-24" x="356.81" y="294.26" width="2.25" height="5.42"/><rect class="cls-24" x="363.09" y="294.26" width="2.25" height="5.42"/><rect class="cls-24" x="369.36" y="294.26" width="2.25" height="5.42"/><rect class="cls-24" x="375.64" y="294.26" width="2.25" height="5.42"/><rect class="cls-23" x="350.96" y="216.86" width="32.79" height="2.88"/><rect class="cls-24" x="364.75" y="306.59" width="5.2" height="7.38"/><polygon class="cls-25" points="307.63 188.59 291.38 174.3 275.13 188.59 307.63 188.59"/><rect class="cls-3" x="269.82" y="185.96" width="43.12" height="101.03"/><rect class="cls-4" x="274.51" y="193.58" width="8.75" height="2.84"/><rect class="cls-4" x="287" y="193.58" width="8.75" height="2.84"/><rect class="cls-4" x="299.5" y="193.58" width="8.75" height="2.84"/><rect class="cls-4" x="274.51" y="202.37" width="8.75" height="2.84"/><rect class="cls-4" x="287" y="202.37" width="8.75" height="2.84"/><rect class="cls-4" x="299.5" y="202.37" width="8.75" height="2.84"/><rect class="cls-4" x="274.51" y="211.17" width="8.75" height="2.84"/><rect class="cls-4" x="287" y="211.17" width="8.75" height="2.84"/><rect class="cls-4" x="299.5" y="211.17" width="8.75" height="2.84"/><rect class="cls-4" x="274.51" y="219.97" width="8.75" height="2.84"/><rect class="cls-4" x="287" y="219.97" width="8.75" height="2.84"/><rect class="cls-4" x="299.5" y="219.97" width="8.75" height="2.84"/><rect class="cls-4" x="274.51" y="228.76" width="8.75" height="2.84"/><rect class="cls-4" x="287" y="228.76" width="8.75" height="2.84"/><rect class="cls-4" x="299.5" y="228.76" width="8.75" height="2.84"/><rect class="cls-4" x="274.51" y="237.56" width="8.75" height="2.84"/><rect class="cls-4" x="287" y="237.56" width="8.75" height="2.84"/><rect class="cls-4" x="299.5" y="237.56" width="8.75" height="2.84"/><rect class="cls-4" x="274.51" y="246.36" width="8.75" height="2.84"/><rect class="cls-4" x="287" y="246.36" width="8.75" height="2.84"/><rect class="cls-4" x="299.5" y="246.36" width="8.75" height="2.84"/><rect class="cls-4" x="274.51" y="255.15" width="8.75" height="2.84"/><rect class="cls-4" x="287" y="255.15" width="8.75" height="2.84"/><rect class="cls-4" x="299.5" y="255.15" width="8.75" height="2.84"/><rect class="cls-4" x="274.51" y="263.95" width="8.75" height="2.84"/><rect class="cls-4" x="287" y="263.95" width="8.75" height="2.84"/><rect class="cls-4" x="299.5" y="263.95" width="8.75" height="2.84"/><rect class="cls-4" x="274.51" y="272.74" width="8.75" height="2.84"/><rect class="cls-4" x="287" y="272.74" width="8.75" height="2.84"/><rect class="cls-4" x="299.5" y="272.74" width="8.75" height="2.84"/><rect class="cls-25" x="264.82" y="282.18" width="53.12" height="31.78"/><rect class="cls-26" x="271.69" y="289.4" width="39.37" height="3.93"/><rect class="cls-26" x="271.69" y="300.68" width="39.37" height="13.28"/><rect class="cls-27" x="277.74" y="304.76" width="27.27" height="9.2"/><rect class="cls-28" x="129.06" y="120.2" width="5.13" height="18.42"/><rect class="cls-22" x="122.87" y="136.4" width="17.51" height="7.2"/><rect class="cls-28" x="118.71" y="142.56" width="25.83" height="7.2"/><rect class="cls-22" x="115.21" y="149.81" width="32.84" height="164.15"/><rect class="cls-29" x="121.29" y="157.78" width="3.1" height="156.18"/><rect class="cls-29" x="130.08" y="157.78" width="3.1" height="156.18"/><rect class="cls-29" x="138.86" y="157.78" width="3.1" height="156.18"/><rect class="cls-30" x="389.7" y="249.94" width="21.76" height="64.02"/><rect class="cls-31" x="389.07" y="249.94" width="2.05" height="64.02"/><rect class="cls-32" x="409.88" y="248.61" width="5.99" height="65.36"/><rect class="cls-32" x="384.33" y="248.61" width="5.99" height="65.36"/><rect class="cls-31" x="392.89" y="254.66" width="14.72" height="2.03"/><rect class="cls-31" x="392.89" y="260.74" width="14.72" height="2.03"/><rect class="cls-31" x="392.89" y="266.82" width="14.72" height="2.03"/><rect class="cls-31" x="392.89" y="272.9" width="14.72" height="2.03"/><rect class="cls-31" x="392.89" y="278.98" width="14.72" height="2.03"/><rect class="cls-31" x="392.89" y="285.06" width="14.72" height="2.03"/><rect class="cls-31" x="392.89" y="291.14" width="14.72" height="2.03"/><rect class="cls-31" x="392.89" y="297.22" width="14.72" height="2.03"/><rect class="cls-31" x="392.89" y="303.3" width="14.72" height="2.03"/><rect class="cls-33" x="84.65" y="203.27" width="25.4" height="110.7"/><rect class="cls-34" x="83.92" y="203.27" width="2.39" height="110.7"/><rect class="cls-35" x="108.22" y="201.6" width="6.99" height="112.36"/><rect class="cls-35" x="78.39" y="201.6" width="6.99" height="112.36"/><rect class="cls-34" x="88.38" y="209.34" width="17.18" height="2.54"/><rect class="cls-34" x="88.38" y="216.95" width="17.18" height="2.54"/><rect class="cls-34" x="88.38" y="224.55" width="17.18" height="2.54"/><rect class="cls-34" x="88.38" y="232.16" width="17.18" height="2.54"/><rect class="cls-34" x="88.38" y="239.77" width="17.18" height="2.54"/><rect class="cls-34" x="88.38" y="247.37" width="17.18" height="2.54"/><rect class="cls-34" x="88.38" y="254.98" width="17.18" height="2.54"/><rect class="cls-34" x="88.38" y="262.59" width="17.18" height="2.54"/><rect class="cls-34" x="88.38" y="270.2" width="17.18" height="2.54"/><rect class="cls-34" x="88.38" y="277.8" width="17.18" height="2.54"/><rect class="cls-34" x="88.38" y="285.41" width="17.18" height="2.54"/><rect class="cls-34" x="88.38" y="293.02" width="17.18" height="2.54"/><rect class="cls-34" x="88.38" y="300.63" width="17.18" height="2.54"/><rect class="cls-36" x="183.49" y="206.7" width="54.29" height="107.26"/><polygon class="cls-37" points="196.04 206.7 196.04 313.96 211.9 313.96 227.76 313.96 227.76 206.7 196.04 206.7"/><polygon class="cls-38" points="210.64 190.24 194.78 200.5 194.78 313.96 210.64 313.96 226.5 313.96 226.5 200.5 210.64 190.24"/><rect class="cls-39" x="199.58" y="214.52" width="22.11" height="4.12"/><rect class="cls-39" x="199.58" y="204.34" width="22.11" height="4.12"/><rect class="cls-39" x="199.58" y="224.7" width="22.11" height="4.13"/><rect class="cls-39" x="199.58" y="234.89" width="22.11" height="4.13"/><rect class="cls-39" x="199.58" y="245.07" width="22.11" height="4.13"/><rect class="cls-39" x="199.58" y="255.25" width="22.11" height="4.13"/><rect class="cls-39" x="199.58" y="265.44" width="22.11" height="4.13"/><rect class="cls-39" x="199.58" y="275.62" width="22.11" height="4.13"/><rect class="cls-39" x="199.58" y="285.8" width="22.11" height="4.13"/><rect class="cls-39" x="199.58" y="295.99" width="22.11" height="4.12"/><rect class="cls-40" x="230.46" y="221.23" width="3.36" height="3.34"/><rect class="cls-40" x="230.46" y="211.05" width="3.36" height="3.34"/><rect class="cls-40" x="230.46" y="231.41" width="3.36" height="3.35"/><rect class="cls-40" x="230.46" y="241.6" width="3.36" height="3.34"/><rect class="cls-40" x="230.46" y="251.78" width="3.36" height="3.34"/><rect class="cls-40" x="230.46" y="261.96" width="3.36" height="3.35"/><rect class="cls-40" x="230.46" y="272.15" width="3.36" height="3.34"/><rect class="cls-40" x="230.46" y="282.33" width="3.36" height="3.34"/><rect class="cls-40" x="230.46" y="292.52" width="3.36" height="3.34"/><rect class="cls-40" x="230.46" y="302.7" width="3.36" height="3.34"/><rect class="cls-40" x="187.46" y="221.23" width="3.36" height="3.34"/><rect class="cls-40" x="187.46" y="211.05" width="3.36" height="3.34"/><rect class="cls-40" x="187.46" y="231.41" width="3.36" height="3.35"/><rect class="cls-40" x="187.46" y="241.6" width="3.36" height="3.34"/><rect class="cls-40" x="187.46" y="251.78" width="3.36" height="3.34"/><rect class="cls-40" x="187.46" y="261.96" width="3.36" height="3.35"/><rect class="cls-40" x="187.46" y="272.15" width="3.36" height="3.34"/><rect class="cls-40" x="187.46" y="282.33" width="3.36" height="3.34"/><rect class="cls-40" x="187.46" y="292.52" width="3.36" height="3.34"/><rect class="cls-40" x="187.46" y="302.7" width="3.36" height="3.34"/><rect class="cls-39" x="204" y="306.39" width="13.26" height="7.58"/><rect class="cls-41" x="145.27" y="229.58" width="4.52" height="6.95"/><rect class="cls-41" x="145.27" y="241.24" width="4.52" height="6.95"/><rect class="cls-41" x="145.27" y="252.9" width="4.52" height="6.95"/><rect class="cls-41" x="145.27" y="264.56" width="4.52" height="6.95"/><rect class="cls-41" x="145.27" y="276.23" width="4.52" height="6.95"/><rect class="cls-41" x="145.27" y="287.88" width="4.52" height="6.95"/><rect class="cls-41" x="145.27" y="299.54" width="4.52" height="6.95"/><rect class="cls-42" x="148.05" y="221.95" width="35.44" height="91.84"/><rect class="cls-41" x="148.05" y="311.53" width="35.44" height="2.43"/><rect class="cls-24" x="158.38" y="236.72" width="6.6" height="4.4"/><rect class="cls-24" x="166.55" y="236.72" width="6.6" height="4.4"/><rect class="cls-24" x="158.38" y="248.45" width="6.6" height="4.4"/><rect class="cls-24" x="166.55" y="248.45" width="6.6" height="4.4"/><rect class="cls-24" x="158.38" y="260.19" width="6.6" height="4.4"/><rect class="cls-24" x="166.55" y="260.19" width="6.6" height="4.4"/><rect class="cls-24" x="158.38" y="271.92" width="6.6" height="4.4"/><rect class="cls-24" x="166.55" y="271.92" width="6.6" height="4.4"/><rect class="cls-24" x="158.38" y="283.65" width="6.6" height="4.4"/><rect class="cls-24" x="166.55" y="283.65" width="6.6" height="4.4"/><rect class="cls-24" x="158.38" y="295.38" width="6.6" height="4.4"/><rect class="cls-24" x="166.55" y="295.38" width="6.6" height="4.4"/><rect class="cls-43" x="29.72" y="163.27" width="48.24" height="150.79"/><rect class="cls-44" x="43.54" y="305.94" width="20.61" height="8.39"/><rect class="cls-17" x="47.68" y="305.94" width="16.46" height="8.39"/><rect class="cls-17" x="33.87" y="293.06" width="6.64" height="4.16"/><rect class="cls-17" x="44.97" y="293.06" width="6.64" height="4.16"/><rect class="cls-17" x="56.08" y="293.06" width="6.64" height="4.16"/><rect class="cls-17" x="67.18" y="293.06" width="6.64" height="4.16"/><rect class="cls-45" x="29.72" y="295.38" width="48.24" height="4.25"/><rect class="cls-17" x="33.87" y="281.95" width="6.64" height="4.16"/><rect class="cls-17" x="44.97" y="281.95" width="6.64" height="4.16"/><rect class="cls-17" x="56.08" y="281.95" width="6.64" height="4.16"/><rect class="cls-17" x="67.18" y="281.95" width="6.64" height="4.16"/><rect class="cls-45" x="29.72" y="284.27" width="48.24" height="4.25"/><rect class="cls-17" x="33.87" y="270.84" width="6.64" height="4.15"/><rect class="cls-17" x="44.97" y="270.84" width="6.64" height="4.15"/><rect class="cls-17" x="56.08" y="270.84" width="6.64" height="4.15"/><rect class="cls-17" x="67.18" y="270.84" width="6.64" height="4.15"/><rect class="cls-45" x="29.72" y="273.16" width="48.24" height="4.25"/><rect class="cls-17" x="33.87" y="259.73" width="6.64" height="4.15"/><rect class="cls-17" x="44.97" y="259.73" width="6.64" height="4.15"/><rect class="cls-17" x="56.08" y="259.73" width="6.64" height="4.15"/><rect class="cls-17" x="67.18" y="259.73" width="6.64" height="4.15"/><rect class="cls-45" x="29.72" y="262.05" width="48.24" height="4.24"/><rect class="cls-17" x="33.87" y="248.62" width="6.64" height="4.16"/><rect class="cls-17" x="44.97" y="248.62" width="6.64" height="4.16"/><rect class="cls-17" x="56.08" y="248.62" width="6.64" height="4.16"/><rect class="cls-17" x="67.18" y="248.62" width="6.64" height="4.16"/><rect class="cls-45" x="29.72" y="250.94" width="48.24" height="4.25"/><rect class="cls-17" x="33.87" y="237.51" width="6.64" height="4.15"/><rect class="cls-17" x="44.97" y="237.51" width="6.64" height="4.15"/><rect class="cls-17" x="56.08" y="237.51" width="6.64" height="4.15"/><rect class="cls-17" x="67.18" y="237.51" width="6.64" height="4.15"/><rect class="cls-45" x="29.72" y="239.83" width="48.24" height="4.25"/><rect class="cls-17" x="33.87" y="226.4" width="6.64" height="4.16"/><rect class="cls-17" x="44.97" y="226.4" width="6.64" height="4.16"/><rect class="cls-17" x="56.08" y="226.4" width="6.64" height="4.16"/><rect class="cls-17" x="67.18" y="226.4" width="6.64" height="4.16"/><rect class="cls-45" x="29.72" y="228.72" width="48.24" height="4.25"/><rect class="cls-17" x="33.87" y="215.3" width="6.64" height="4.15"/><rect class="cls-17" x="44.97" y="215.3" width="6.64" height="4.15"/><rect class="cls-17" x="56.08" y="215.3" width="6.64" height="4.15"/><rect class="cls-17" x="67.18" y="215.3" width="6.64" height="4.15"/><rect class="cls-45" x="29.72" y="217.62" width="48.24" height="4.24"/><rect class="cls-17" x="33.87" y="204.19" width="6.64" height="4.16"/><rect class="cls-17" x="44.97" y="204.19" width="6.64" height="4.16"/><rect class="cls-17" x="56.08" y="204.19" width="6.64" height="4.16"/><rect class="cls-17" x="67.18" y="204.19" width="6.64" height="4.16"/><rect class="cls-45" x="29.72" y="206.51" width="48.24" height="4.25"/><rect class="cls-17" x="33.87" y="193.08" width="6.64" height="4.16"/><rect class="cls-17" x="44.97" y="193.08" width="6.64" height="4.16"/><rect class="cls-17" x="56.08" y="193.08" width="6.64" height="4.16"/><rect class="cls-17" x="67.18" y="193.08" width="6.64" height="4.16"/><rect class="cls-45" x="29.72" y="195.4" width="48.24" height="4.25"/><rect class="cls-17" x="33.87" y="181.97" width="6.64" height="4.16"/><rect class="cls-17" x="44.97" y="181.97" width="6.64" height="4.16"/><rect class="cls-17" x="56.08" y="181.97" width="6.64" height="4.16"/><rect class="cls-17" x="67.18" y="181.97" width="6.64" height="4.16"/><rect class="cls-45" x="29.72" y="184.29" width="48.24" height="4.25"/><rect class="cls-17" x="33.87" y="170.86" width="6.64" height="4.16"/><rect class="cls-17" x="44.97" y="170.86" width="6.64" height="4.16"/><rect class="cls-17" x="56.08" y="170.86" width="6.64" height="4.16"/><rect class="cls-17" x="67.18" y="170.86" width="6.64" height="4.16"/><rect class="cls-45" x="29.72" y="173.18" width="48.24" height="4.25"/></g></g></svg>